<svg width="327" height="136" viewBox="0 0 327 136" fill="none" xmlns="http://www.w3.org/2000/svg">
<path d="M114.119 123.5V106.045H118.732V109.125H118.937C119.301 108.102 119.907 107.295 120.755 106.705C121.604 106.114 122.619 105.818 123.801 105.818C124.997 105.818 126.016 106.117 126.857 106.716C127.698 107.307 128.259 108.11 128.539 109.125H128.721C129.077 108.125 129.721 107.326 130.653 106.727C131.592 106.121 132.702 105.818 133.982 105.818C135.611 105.818 136.933 106.337 137.948 107.375C138.971 108.405 139.482 109.867 139.482 111.761V123.5H134.653V112.716C134.653 111.746 134.395 111.019 133.88 110.534C133.365 110.049 132.721 109.807 131.948 109.807C131.069 109.807 130.384 110.087 129.891 110.648C129.399 111.201 129.153 111.932 129.153 112.841V123.5H124.46V112.614C124.46 111.758 124.213 111.076 123.721 110.568C123.236 110.061 122.596 109.807 121.801 109.807C121.263 109.807 120.778 109.943 120.346 110.216C119.922 110.481 119.585 110.856 119.335 111.341C119.085 111.818 118.96 112.379 118.96 113.023V123.5H114.119ZM150.873 123.841C149.107 123.841 147.581 123.466 146.293 122.716C145.013 121.958 144.024 120.905 143.327 119.557C142.63 118.201 142.282 116.629 142.282 114.841C142.282 113.038 142.63 111.462 143.327 110.114C144.024 108.758 145.013 107.705 146.293 106.955C147.581 106.197 149.107 105.818 150.873 105.818C152.638 105.818 154.16 106.197 155.441 106.955C156.729 107.705 157.721 108.758 158.418 110.114C159.115 111.462 159.463 113.038 159.463 114.841C159.463 116.629 159.115 118.201 158.418 119.557C157.721 120.905 156.729 121.958 155.441 122.716C154.16 123.466 152.638 123.841 150.873 123.841ZM150.895 120.091C151.698 120.091 152.369 119.864 152.907 119.409C153.445 118.947 153.85 118.318 154.123 117.523C154.403 116.727 154.543 115.822 154.543 114.807C154.543 113.792 154.403 112.886 154.123 112.091C153.85 111.295 153.445 110.667 152.907 110.205C152.369 109.742 151.698 109.511 150.895 109.511C150.085 109.511 149.403 109.742 148.85 110.205C148.304 110.667 147.891 111.295 147.611 112.091C147.338 112.886 147.202 113.792 147.202 114.807C147.202 115.822 147.338 116.727 147.611 117.523C147.891 118.318 148.304 118.947 148.85 119.409C149.403 119.864 150.085 120.091 150.895 120.091ZM167.132 113.409V123.5H162.291V106.045H166.905V109.125H167.109C167.496 108.11 168.143 107.307 169.053 106.716C169.962 106.117 171.064 105.818 172.359 105.818C173.571 105.818 174.628 106.083 175.53 106.614C176.431 107.144 177.132 107.902 177.632 108.886C178.132 109.864 178.382 111.03 178.382 112.386V123.5H173.541V113.25C173.549 112.182 173.276 111.348 172.723 110.75C172.17 110.144 171.409 109.841 170.439 109.841C169.787 109.841 169.212 109.981 168.712 110.261C168.219 110.542 167.833 110.951 167.553 111.489C167.28 112.019 167.14 112.659 167.132 113.409ZM189.832 123.841C188.037 123.841 186.491 123.477 185.196 122.75C183.908 122.015 182.915 120.977 182.218 119.636C181.521 118.288 181.173 116.693 181.173 114.852C181.173 113.057 181.521 111.481 182.218 110.125C182.915 108.769 183.896 107.712 185.162 106.955C186.434 106.197 187.927 105.818 189.639 105.818C190.79 105.818 191.862 106.004 192.855 106.375C193.855 106.739 194.726 107.288 195.468 108.023C196.218 108.758 196.802 109.682 197.218 110.795C197.635 111.902 197.843 113.197 197.843 114.682V116.011H183.105V113.011H193.287C193.287 112.314 193.135 111.697 192.832 111.159C192.529 110.621 192.109 110.201 191.571 109.898C191.04 109.587 190.423 109.432 189.718 109.432C188.984 109.432 188.332 109.602 187.764 109.943C187.203 110.277 186.764 110.727 186.446 111.295C186.127 111.856 185.965 112.481 185.957 113.17V116.023C185.957 116.886 186.116 117.633 186.434 118.261C186.76 118.89 187.218 119.375 187.809 119.716C188.4 120.057 189.101 120.227 189.912 120.227C190.449 120.227 190.942 120.152 191.389 120C191.836 119.848 192.218 119.621 192.537 119.318C192.855 119.015 193.097 118.644 193.264 118.205L197.741 118.5C197.514 119.576 197.048 120.515 196.343 121.318C195.646 122.114 194.745 122.735 193.639 123.182C192.54 123.621 191.271 123.841 189.832 123.841ZM204.415 106.045L207.62 112.148L210.904 106.045H215.87L210.813 114.773L216.006 123.5H211.063L207.62 117.466L204.234 123.5H199.234L204.415 114.773L199.415 106.045H204.415Z" fill="#242D35"/>
<path d="M132.32 51.4117L176.522 23.4869V12.3201L132.32 40.2501V51.4117Z" fill="#0E33F3"/>
<path d="M132.32 75.6802L176.522 47.7554V38.7314L132.32 66.6562V75.6802Z" fill="#0E33F3"/>
<path d="M151.469 51.4116L195.68 23.4868V14.104L151.469 42.0288V51.4116Z" fill="#0E33F3"/>
<path d="M195.68 38.3723L151.469 66.2971V75.6799L195.68 47.7551V38.3723Z" fill="#0E33F3"/>
</svg>

