<svg width="251" height="320" viewBox="0 0 251 320" fill="none" xmlns="http://www.w3.org/2000/svg">
<g clip-path="url(#clip0_2041_7652)">
<path d="M137.783 60.9841C105.762 60.9841 52.7288 73.9508 52.7288 113.399C52.7288 147.002 97.7573 176.588 139.984 176.588C182.211 176.588 225.038 152.847 225.038 116.869C225.038 78.2675 181.21 60.9841 137.783 60.9841Z" fill="url(#paint0_linear_2041_7652)"/>
</g>
<g clip-path="url(#clip1_2041_7652)">
<path d="M227.658 140.67H168.628C165.809 135.923 172.946 130.939 178.408 134.262C176.558 125.165 192.064 121.13 195.941 129.357C200.61 119.944 218.671 121.842 216.733 134.816C222.284 131.731 229.86 135.528 227.658 140.67Z" fill="white"/>
</g>
<g clip-path="url(#clip2_2041_7652)">
<path d="M222.268 252.953H26.9135L32.3997 245.008L40.7537 243.413L47.4205 228.587L74.0849 220.07L80.9217 203.825L98.7262 195.742L98.8603 192.167L114.575 171.932L128.599 163.276L129.733 151.884L133.41 114.921L145.983 97.1298L151.384 96.1418L162.523 76.8303L176.952 127.77L189.273 135.38L195.914 174.135L197.037 180.687L207.585 189.659L222.268 252.953Z" fill="url(#paint1_linear_2041_7652)"/>
<path d="M128.599 163.276L127.974 170.269C122.777 173.085 124.093 180.413 120.498 183.577C116.954 186.694 112.872 185.083 109.613 189.279C105.477 194.601 107.588 205.093 98.9799 207.83C91.7064 210.142 85.0557 203.115 80.9217 203.825L98.726 195.742L98.8603 192.167L114.575 171.932L128.599 163.276ZM195.914 174.135C193.999 176.164 188.387 176.429 184.253 174.072C179.481 171.353 175.307 159.816 166.979 158.273C158.431 156.69 153.409 165.367 145.813 162.315C139.708 159.861 138.978 148.947 129.733 151.884L133.41 114.921L145.983 97.1297L151.384 96.1417L162.523 76.8303L176.952 127.77L189.273 135.38L195.914 174.135L195.914 174.135Z" fill="white"/>
<path d="M222.268 253.254H26.9135C26.8539 253.254 26.7953 253.24 26.744 253.213C26.6926 253.185 26.6503 253.146 26.6213 253.099C26.5923 253.052 26.5778 252.999 26.5792 252.946C26.5806 252.892 26.5979 252.84 26.6293 252.794L32.1155 244.849C32.1393 244.815 32.1706 244.785 32.2074 244.762C32.2443 244.738 32.286 244.722 32.3301 244.714L40.5102 243.151L47.1104 228.473C47.1281 228.434 47.155 228.398 47.1891 228.369C47.2233 228.339 47.264 228.317 47.3086 228.302L73.827 219.833L80.6087 203.718C80.6383 203.648 80.6962 203.59 80.771 203.556L98.3981 195.553L98.5258 192.157C98.5279 192.098 98.5489 192.042 98.586 191.994L114.301 171.759C114.324 171.729 114.352 171.703 114.386 171.683L128.28 163.107L129.4 151.857L133.076 114.894C133.081 114.846 133.098 114.8 133.127 114.759L145.701 96.9675C145.725 96.9334 145.756 96.904 145.794 96.881C145.831 96.8581 145.872 96.8421 145.916 96.834L151.16 95.8748L162.226 76.6912C162.257 76.6371 162.306 76.5928 162.366 76.5642C162.426 76.5355 162.494 76.5239 162.561 76.5307C162.628 76.5378 162.692 76.563 162.743 76.6032C162.794 76.6434 162.83 76.6966 162.847 76.7557L177.245 127.585L189.462 135.131C189.538 135.178 189.59 135.251 189.604 135.334L197.35 180.539L207.815 189.44C207.865 189.482 207.899 189.537 207.913 189.597L222.596 252.891C222.606 252.935 222.605 252.98 222.593 253.024C222.581 253.068 222.559 253.108 222.528 253.143C222.496 253.178 222.457 253.206 222.412 253.225C222.367 253.244 222.318 253.254 222.268 253.254ZM27.5158 252.652H221.856L207.279 189.813L196.807 180.906C196.753 180.86 196.717 180.799 196.706 180.733L188.965 135.554L176.763 128.018C176.696 127.977 176.648 127.915 176.628 127.844L162.415 77.6699L151.681 96.2805C151.658 96.3204 151.625 96.3551 151.585 96.3822C151.545 96.4092 151.499 96.4279 151.45 96.4369L146.189 97.3995L133.736 115.021L130.067 151.911L128.933 163.302C128.928 163.347 128.913 163.39 128.888 163.428C128.863 163.466 128.829 163.499 128.789 163.524L114.814 172.149L99.1915 192.266L99.0605 195.752C99.0585 195.806 99.0403 195.858 99.008 195.904C98.9756 195.949 98.9303 195.986 98.8767 196.011L81.1885 204.041L74.3979 220.177C74.3807 220.218 74.3538 220.255 74.3191 220.286C74.2843 220.316 74.2426 220.34 74.1969 220.354L47.6742 228.825L41.0636 243.526C41.043 243.571 41.0103 243.612 40.9684 243.643C40.9264 243.675 40.8765 243.697 40.8229 243.707L32.6084 245.276L27.5158 252.652Z" fill="#242D35"/>
<path d="M147.207 117.574C147.199 117.574 147.192 117.574 147.185 117.573C147.141 117.571 147.098 117.56 147.059 117.543C147.02 117.525 146.984 117.501 146.955 117.471C146.926 117.442 146.904 117.407 146.89 117.37C146.876 117.332 146.87 117.293 146.872 117.253L148.012 101.14C148.015 101.096 148.029 101.053 148.052 101.015L151.09 95.9967C151.133 95.9275 151.204 95.8763 151.289 95.8543C151.374 95.8323 151.465 95.8413 151.542 95.8794C151.619 95.9174 151.677 95.9814 151.702 96.0574C151.727 96.1334 151.718 96.2154 151.677 96.2855L148.675 101.245L147.54 117.291C147.535 117.368 147.497 117.439 147.435 117.492C147.373 117.544 147.292 117.574 147.207 117.574ZM176.953 127.77L184.737 157.213L180.845 130.174L176.953 127.77Z" fill="#242D35"/>
<path d="M184.737 157.514C184.662 157.514 184.589 157.491 184.53 157.449C184.471 157.407 184.429 157.348 184.412 157.283L176.627 127.84C176.611 127.781 176.616 127.718 176.64 127.662C176.665 127.605 176.708 127.556 176.763 127.522C176.819 127.487 176.885 127.469 176.952 127.469C177.02 127.469 177.086 127.487 177.142 127.521L181.034 129.926C181.112 129.974 181.164 130.051 181.177 130.136L185.069 157.174C185.075 157.217 185.071 157.26 185.057 157.301C185.043 157.342 185.02 157.38 184.988 157.412C184.957 157.444 184.918 157.47 184.875 157.488C184.831 157.505 184.784 157.514 184.737 157.514L184.737 157.514ZM177.479 128.461L183.586 151.557L180.532 130.347L177.479 128.461ZM98.5997 253.255C98.542 253.255 98.4852 253.242 98.435 253.216C98.3848 253.19 98.3429 253.153 98.3132 253.109C98.2835 253.064 98.2672 253.013 98.2657 252.961C98.2643 252.909 98.2778 252.858 98.305 252.812L108.305 235.933C108.354 235.85 108.442 235.793 108.545 235.778L114.438 234.893L122.597 217.366C122.622 217.311 122.665 217.264 122.72 217.231C122.775 217.199 122.839 217.181 122.905 217.181H154.275L158.31 189.801C158.316 189.757 158.333 189.715 158.359 189.678L166.663 177.922L164.052 141.517C164.049 141.477 164.055 141.438 164.069 141.4C164.083 141.363 164.106 141.328 164.135 141.299C164.164 141.269 164.199 141.245 164.238 141.227C164.278 141.21 164.32 141.199 164.364 141.197C164.408 141.194 164.452 141.199 164.494 141.212C164.535 141.225 164.574 141.245 164.607 141.271C164.64 141.297 164.667 141.329 164.686 141.364C164.705 141.4 164.717 141.439 164.72 141.478L167.338 177.981C167.342 178.045 167.324 178.109 167.286 178.163L158.963 189.946L154.9 217.522C154.889 217.594 154.849 217.661 154.788 217.709C154.727 217.757 154.649 217.784 154.568 217.784H123.128L114.984 235.279C114.962 235.326 114.927 235.367 114.883 235.399C114.839 235.431 114.786 235.451 114.73 235.46L108.817 236.348L98.8951 253.095C98.8665 253.144 98.8239 253.184 98.7719 253.212C98.7198 253.24 98.6604 253.255 98.5997 253.255ZM197.036 180.687L201.984 209.717L201.188 184.218L197.036 180.687Z" fill="#242D35"/>
<path d="M201.984 210.019C201.904 210.019 201.827 209.993 201.766 209.946C201.705 209.899 201.665 209.834 201.653 209.763L196.706 180.733C196.695 180.671 196.706 180.607 196.738 180.551C196.769 180.495 196.819 180.449 196.881 180.42C196.943 180.391 197.013 180.38 197.082 180.388C197.151 180.397 197.215 180.425 197.266 180.468L201.418 183.999C201.482 184.054 201.52 184.129 201.522 184.209L202.318 209.709C202.32 209.749 202.312 209.789 202.296 209.827C202.279 209.864 202.255 209.899 202.224 209.928C202.193 209.956 202.155 209.979 202.114 209.995C202.073 210.011 202.028 210.019 201.984 210.019ZM197.515 181.508L201.498 204.882L200.857 184.351L197.515 181.508L197.515 181.508ZM162.143 253.255C162.093 253.255 162.043 253.245 161.998 253.225C161.953 253.206 161.913 253.178 161.882 253.142C161.85 253.107 161.828 253.066 161.817 253.022C161.805 252.978 161.805 252.932 161.816 252.888L163.588 245.703C163.6 245.655 163.625 245.61 163.661 245.572C163.696 245.535 163.742 245.506 163.793 245.488L173.98 241.906L176.619 215.747C176.625 215.689 176.65 215.633 176.69 215.587L185.045 206.121C185.1 206.059 185.18 206.018 185.269 206.009C185.357 206 185.445 206.023 185.515 206.073C185.584 206.123 185.629 206.195 185.639 206.275C185.649 206.354 185.624 206.434 185.568 206.497L177.276 215.892L174.627 242.147C174.622 242.202 174.599 242.256 174.562 242.3C174.524 242.345 174.474 242.38 174.416 242.4L164.202 245.991L162.469 253.019C162.453 253.086 162.411 253.146 162.352 253.189C162.293 253.232 162.219 253.255 162.143 253.255ZM215.812 252.954L214.04 246.909L207.332 243.602L204.167 226.267L210.203 242.811L217.01 245.169L222.268 252.953L215.812 252.954Z" fill="#242D35"/>
<path d="M215.812 253.255C215.738 253.255 215.667 253.233 215.608 253.193C215.55 253.152 215.508 253.095 215.489 253.031L213.753 247.112L207.171 243.867C207.126 243.845 207.088 243.814 207.058 243.776C207.029 243.739 207.009 243.696 207.001 243.651L203.837 226.316C203.823 226.241 203.841 226.164 203.887 226.101C203.934 226.037 204.005 225.992 204.087 225.974C204.169 225.956 204.256 225.966 204.329 226.003C204.403 226.04 204.459 226.101 204.485 226.173L210.471 242.581L217.13 244.888C217.199 244.912 217.257 244.956 217.296 245.013L222.554 252.796C222.585 252.842 222.602 252.894 222.603 252.948C222.604 253.001 222.589 253.054 222.56 253.101C222.531 253.148 222.488 253.186 222.437 253.213C222.386 253.24 222.327 253.255 222.268 253.255L215.812 253.255V253.255ZM207.635 243.408L214.201 246.645C214.281 246.685 214.34 246.752 214.364 246.832L216.07 252.652L221.673 252.652L216.783 245.414L210.083 243.092C210.036 243.076 209.994 243.051 209.96 243.019C209.926 242.986 209.9 242.947 209.885 242.905L205.198 230.059L207.635 243.408V243.408ZM38.981 247.439C38.9256 247.439 38.8711 247.427 38.8223 247.403C38.7736 247.379 38.7321 247.345 38.7016 247.303C38.6712 247.262 38.6526 247.214 38.6477 247.164C38.6428 247.114 38.6517 247.064 38.6736 247.019L40.4456 243.293C40.4821 243.222 40.5481 243.166 40.6295 243.138C40.7109 243.11 40.8012 243.111 40.8814 243.142C40.9615 243.173 41.0251 243.231 41.0586 243.304C41.092 243.376 41.0928 243.458 41.0606 243.531L39.2886 247.256C39.2628 247.31 39.2199 247.357 39.1652 247.389C39.1106 247.422 39.0465 247.439 38.981 247.439ZM67.5881 238.011C67.5351 238.011 67.4829 238 67.4357 237.978C67.3885 237.956 67.3478 237.925 67.3168 237.886C67.2858 237.847 67.2654 237.803 67.2574 237.756C67.2494 237.708 67.2539 237.66 67.2706 237.615L73.7683 219.976C73.7821 219.938 73.804 219.904 73.8328 219.874C73.8615 219.844 73.8965 219.819 73.9358 219.801C73.975 219.784 74.0178 219.773 74.0616 219.77C74.1054 219.767 74.1494 219.772 74.1911 219.785C74.2328 219.797 74.2713 219.817 74.3046 219.843C74.3378 219.869 74.365 219.9 74.3847 219.936C74.4044 219.971 74.4162 220.009 74.4194 220.049C74.4226 220.088 74.4171 220.128 74.4033 220.166L67.9056 237.805C67.8835 237.865 67.8409 237.917 67.784 237.954C67.727 237.991 67.6585 238.011 67.5883 238.011L67.5881 238.011ZM98.7265 195.741L98.5977 221.99L94.426 197.694L98.7265 195.741Z" fill="#242D35"/>
<path d="M98.5974 222.292C98.5175 222.292 98.4404 222.266 98.3798 222.219C98.3192 222.172 98.2792 222.108 98.267 222.036L94.0954 197.74C94.0846 197.677 94.0962 197.612 94.1286 197.556C94.1609 197.499 94.2124 197.453 94.2755 197.425L98.5761 195.472C98.6272 195.449 98.6841 195.438 98.7413 195.44C98.7985 195.442 98.8541 195.457 98.9027 195.485C98.9514 195.512 98.9915 195.55 99.0193 195.595C99.047 195.64 99.0614 195.691 99.0612 195.742L98.9322 221.992C98.9318 222.071 98.8964 222.148 98.8336 222.204C98.7709 222.26 98.6859 222.292 98.5974 222.292ZM94.7937 197.864L98.2817 218.18L98.3896 196.231L94.7937 197.864ZM127.334 177.723C127.288 177.723 127.242 177.714 127.199 177.698C127.157 177.681 127.119 177.657 127.088 177.626C127.056 177.595 127.032 177.559 127.017 177.52C127.002 177.481 126.996 177.439 127 177.397L128.266 163.252C128.269 163.212 128.281 163.174 128.301 163.138C128.321 163.103 128.348 163.072 128.382 163.046C128.415 163.02 128.454 163.001 128.496 162.989C128.538 162.977 128.582 162.972 128.626 162.976C128.714 162.982 128.796 163.02 128.854 163.081C128.911 163.142 128.94 163.221 128.933 163.3L127.667 177.446C127.66 177.521 127.622 177.592 127.56 177.643C127.499 177.694 127.418 177.723 127.334 177.723H127.334ZM232.064 253.255H16.5941C16.5053 253.255 16.4202 253.223 16.3575 253.167C16.2948 253.11 16.2595 253.034 16.2595 252.954C16.2595 252.874 16.2948 252.797 16.3575 252.74C16.4202 252.684 16.5053 252.652 16.5941 252.652H232.064C232.153 252.652 232.238 252.684 232.3 252.74C232.363 252.797 232.398 252.874 232.398 252.954C232.398 253.034 232.363 253.11 232.3 253.167C232.238 253.223 232.153 253.255 232.064 253.255Z" fill="#242D35"/>
</g>
<g clip-path="url(#clip3_2041_7652)">
<path d="M154.135 87.8477H92.5465C90.4338 83.4423 98.5645 75.269 108.104 80.7179C111.753 66.2843 138.258 66.4582 140.626 82.6887C147.541 76.3125 156.184 83.0945 154.135 87.8477Z" fill="white"/>
</g>
<g clip-path="url(#clip4_2041_7652)">
<path d="M189.907 74.7178L181.237 81.0691L139.257 111.821L133.206 97.1638L124.727 76.6272L189.907 74.7178Z" fill="url(#paint2_linear_2041_7652)"/>
<path d="M139.257 112.123C139.189 112.123 139.123 112.104 139.067 112.069C139.011 112.034 138.968 111.984 138.944 111.927L124.414 76.7328C124.396 76.6879 124.389 76.6397 124.396 76.5922C124.402 76.5446 124.42 76.4991 124.45 76.4594C124.479 76.4196 124.519 76.3867 124.565 76.3635C124.612 76.3403 124.663 76.3274 124.716 76.3259L189.896 74.4162C189.966 74.4138 190.035 74.4315 190.094 74.4668C190.152 74.502 190.196 74.553 190.22 74.6125C190.27 74.7339 190.229 74.8705 190.117 74.9521L139.467 112.055C139.407 112.1 139.333 112.123 139.257 112.123ZM125.202 76.9153L139.407 111.323L188.926 75.0483L125.202 76.9153Z" fill="#242D35"/>
<path d="M181.237 81.0691L139.257 111.821L133.206 97.1638C135.883 99.0431 139.631 99.6841 142.849 98.6766C146.352 97.5816 149.073 94.8019 152.703 94.1322C154.333 93.8336 156.064 93.9799 157.62 93.4535C159.397 92.8517 160.676 91.4701 162.022 90.262C167.22 85.5999 174.201 83.0736 181.237 81.0691Z" fill="#242D35"/>
<path d="M139.257 112.123C139.189 112.123 139.123 112.104 139.067 112.069C139.011 112.034 138.968 111.984 138.944 111.927L132.893 97.2691C132.867 97.2076 132.865 97.1403 132.886 97.0773C132.906 97.0144 132.949 96.9593 133.008 96.9204C133.066 96.8815 133.137 96.861 133.21 96.8619C133.283 96.8628 133.353 96.885 133.41 96.9254C136.036 98.768 139.698 99.3437 142.74 98.3914C144.27 97.9131 145.685 97.083 147.053 96.2803C148.782 95.2663 150.569 94.2177 152.636 93.8364C153.304 93.7141 153.988 93.6642 154.65 93.6159C155.657 93.5426 156.609 93.4732 157.502 93.1708C158.927 92.6885 160.053 91.6461 161.142 90.6378C161.357 90.4394 161.57 90.2413 161.786 90.0478C167.192 85.1998 174.601 82.643 181.136 80.7813C181.21 80.7604 181.29 80.7634 181.362 80.7899C181.434 80.8164 181.493 80.8647 181.53 80.9265C181.567 80.9882 181.579 81.0596 181.564 81.1284C181.548 81.1972 181.507 81.259 181.447 81.3033L139.467 112.055C139.407 112.099 139.333 112.123 139.257 112.123ZM133.891 97.9611L139.407 111.322L179.637 81.8523C173.623 83.6515 167.1 86.1322 162.257 90.476C162.043 90.6689 161.831 90.8633 161.62 91.0592C160.48 92.1147 159.301 93.2061 157.737 93.7358C156.756 94.0678 155.713 94.1438 154.704 94.2173C154.062 94.2642 153.398 94.3126 152.77 94.4277C150.827 94.786 149.17 95.7576 147.417 96.7863C146.015 97.6087 144.565 98.4593 142.959 98.9615C140.041 99.8754 136.592 99.4749 133.891 97.9612L133.891 97.9611Z" fill="#242D35"/>
<path d="M161.07 161.182L125.814 75.793C125.55 75.1517 124.76 74.8258 124.05 75.065L124.05 75.0651C123.34 75.3043 122.979 76.0181 123.244 76.6594L158.5 162.048C158.764 162.69 159.554 163.016 160.264 162.776L160.264 162.776C160.974 162.537 161.335 161.823 161.07 161.182Z" fill="white"/>
<path d="M159.783 163.157C159.542 163.157 159.302 163.11 159.076 163.017C158.872 162.933 158.688 162.814 158.536 162.666C158.383 162.518 158.264 162.344 158.186 162.154L122.931 76.7647C122.852 76.5752 122.816 76.3734 122.824 76.1711C122.832 75.9688 122.884 75.7699 122.978 75.5859C123.07 75.4015 123.203 75.2356 123.367 75.0976C123.53 74.9596 123.723 74.8524 123.933 74.7822C124.814 74.4849 125.799 74.8914 126.127 75.6874L161.383 161.076C161.711 161.873 161.262 162.762 160.381 163.059C160.186 163.125 159.985 163.157 159.783 163.157ZM124.528 75.2882C124.408 75.2882 124.286 75.3072 124.166 75.3475C123.907 75.435 123.7 75.6086 123.585 75.8365C123.47 76.0644 123.46 76.3191 123.557 76.5538L158.812 161.943C158.859 162.059 158.932 162.164 159.025 162.255C159.117 162.345 159.229 162.417 159.353 162.468C159.477 162.52 159.611 162.548 159.748 162.553C159.884 162.557 160.02 162.537 160.147 162.494C160.405 162.406 160.614 162.231 160.728 162.004C160.842 161.778 160.853 161.52 160.757 161.287L125.502 75.8983C125.428 75.7192 125.295 75.5648 125.121 75.4558C124.947 75.3467 124.74 75.2883 124.528 75.2882Z" fill="#242D35"/>
</g>
<g clip-path="url(#clip5_2041_7652)">
<path d="M57.4063 242.447L55.7491 248.349L65.8669 249.373L69.1813 240.4L57.4063 242.447Z" fill="url(#paint3_linear_2041_7652)"/>
<path d="M65.867 249.674C65.8547 249.674 65.8423 249.674 65.8296 249.672L55.712 248.649C55.6646 248.644 55.6188 248.63 55.5778 248.608C55.5368 248.586 55.5015 248.556 55.4743 248.521C55.4472 248.486 55.4287 248.445 55.4202 248.403C55.4117 248.36 55.4134 248.317 55.4252 248.275L57.0823 242.372C57.098 242.317 57.1308 242.266 57.177 242.227C57.2232 242.188 57.2809 242.161 57.3433 242.15L69.1182 240.104C69.1756 240.094 69.2348 240.098 69.29 240.115C69.3452 240.132 69.3945 240.162 69.433 240.201C69.4715 240.241 69.4978 240.289 69.5093 240.341C69.5209 240.392 69.5172 240.446 69.4987 240.496L66.1843 249.468C66.1621 249.528 66.1196 249.58 66.0627 249.617C66.0058 249.654 65.9375 249.674 65.8674 249.674H65.867ZM56.1674 248.088L65.6352 249.046L68.6832 240.794L57.6783 242.707L56.1674 248.088V248.088Z" fill="#242D35"/>
<path d="M139.046 208.092L138.173 212.578L127.62 213.09L128.492 206.006L139.046 208.092Z" fill="url(#paint4_linear_2041_7652)"/>
<path d="M127.62 213.391C127.573 213.391 127.526 213.382 127.483 213.365C127.44 213.348 127.402 213.322 127.371 213.291C127.339 213.259 127.316 213.222 127.301 213.182C127.287 213.141 127.282 213.098 127.288 213.056L128.16 205.973C128.165 205.931 128.18 205.89 128.203 205.854C128.227 205.817 128.259 205.786 128.297 205.761C128.335 205.737 128.379 205.719 128.424 205.711C128.47 205.702 128.518 205.703 128.563 205.711L139.117 207.797C139.202 207.814 139.275 207.859 139.323 207.924C139.371 207.989 139.39 208.067 139.375 208.144L138.503 212.63C138.49 212.697 138.452 212.759 138.395 212.804C138.339 212.849 138.267 212.876 138.191 212.879L127.638 213.391C127.632 213.391 127.626 213.391 127.62 213.391H127.62ZM128.783 206.373L127.995 212.769L137.89 212.29L138.661 208.325L128.783 206.373ZM56.4556 245.833C58.2479 245.833 59.3252 247.562 61.1133 247.72C62.9014 247.877 65.2824 246.744 66.8393 246.74C65.8669 249.372 66.749 249.803 66.3356 251.057C66.1552 251.605 65.7835 252.085 65.2759 252.427C64.7683 252.769 64.1519 252.953 63.5186 252.954H42.5664C41.8118 252.954 41.3059 252.254 41.6095 251.631L41.8275 251.183C42.2344 250.348 42.897 249.636 43.7374 249.129C44.5778 248.622 45.5612 248.342 46.5718 248.322L49.3935 248.277C50.9763 248.252 52.5006 247.746 53.7338 246.851C54.4686 246.317 55.4206 245.833 56.4556 245.833V245.833Z" fill="#242D35"/>
<path d="M63.5186 253.255H42.5664C42.0987 253.255 41.6669 253.044 41.4113 252.691C41.1557 252.337 41.1152 251.896 41.3034 251.509L41.5214 251.062C42.4008 249.257 44.3803 248.064 46.5644 248.021L49.3877 247.975C50.8809 247.952 52.35 247.469 53.5242 246.616C54.5156 245.896 55.5017 245.531 56.4556 245.531C57.4913 245.531 58.2887 246.035 59.0597 246.522C59.7351 246.948 60.373 247.351 61.1459 247.419C62.0713 247.5 63.2041 247.203 64.2979 246.914C65.2231 246.67 66.0971 246.44 66.8383 246.438H66.8393C66.8923 246.438 66.9445 246.449 66.9917 246.471C67.0388 246.493 67.0796 246.525 67.1105 246.563C67.1415 246.602 67.1618 246.647 67.1698 246.694C67.1778 246.742 67.1732 246.79 67.1564 246.835C66.5936 248.359 66.6738 249.088 66.7449 249.73C66.7933 250.171 66.8391 250.587 66.6561 251.143C66.2462 252.386 64.9559 253.255 63.5184 253.255L63.5186 253.255ZM56.4556 246.134C55.658 246.134 54.813 246.455 53.9435 247.086C52.6541 248.022 51.0403 248.553 49.3994 248.579L46.5776 248.624C44.6536 248.662 42.9087 249.714 42.1336 251.305L41.9156 251.752C41.8172 251.954 41.8374 252.176 41.9711 252.361C42.1049 252.546 42.3219 252.652 42.5664 252.652H63.5186C64.6624 252.652 65.689 251.961 66.0153 250.971C66.1611 250.529 66.1251 250.203 66.0797 249.79C66.0126 249.183 65.9307 248.44 66.3732 247.074C65.8145 247.143 65.1647 247.315 64.4857 247.493C63.3305 247.798 62.1347 248.113 61.081 248.02C60.1336 247.936 59.3927 247.469 58.6764 247.016C57.9585 246.563 57.2806 246.134 56.4558 246.134L56.4556 246.134ZM127.817 211.488C127.572 212.668 127.205 213.611 126.78 214.556C126.355 215.5 125.635 217.448 128.448 217.448H151.368C152.034 217.448 152.468 216.816 152.172 216.278L151.55 215.148C151.244 214.591 150.794 214.11 150.237 213.744C149.681 213.378 149.035 213.138 148.354 213.046L143.226 212.349C141.843 212.161 140.59 211.566 139.534 210.739C139.298 210.554 139.006 210.424 138.653 210.424C137.443 210.424 134.957 211.545 133.649 211.545C131.555 211.545 128.219 209.548 127.817 211.488L127.817 211.488Z" fill="#242D35"/>
<path d="M151.368 217.75H128.448C127.414 217.75 126.701 217.495 126.327 216.994C125.765 216.241 126.14 215.177 126.47 214.442C126.849 213.6 127.235 212.653 127.488 211.433C127.574 211.017 127.786 210.714 128.117 210.533C128.871 210.12 130.051 210.443 131.301 210.785C132.124 211.01 132.974 211.243 133.649 211.243C134.262 211.243 135.215 210.957 136.137 210.681C137.098 210.394 138.006 210.122 138.653 210.122C139.053 210.122 139.423 210.253 139.753 210.511C140.825 211.35 142.043 211.883 143.275 212.05L148.404 212.747C149.138 212.847 149.834 213.105 150.434 213.5C151.034 213.894 151.519 214.413 151.85 215.013L152.471 216.143C152.565 216.313 152.609 216.501 152.6 216.69C152.59 216.879 152.526 217.063 152.415 217.223C152.305 217.385 152.151 217.518 151.967 217.61C151.784 217.702 151.578 217.75 151.368 217.749V217.75ZM128.145 211.544C127.881 212.816 127.482 213.798 127.09 214.669C126.932 215.019 126.453 216.083 126.882 216.657C127.124 216.982 127.651 217.146 128.448 217.146H151.368C151.464 217.147 151.559 217.125 151.643 217.083C151.727 217.041 151.797 216.98 151.847 216.906C151.898 216.832 151.928 216.748 151.932 216.662C151.937 216.575 151.916 216.489 151.872 216.412L151.251 215.282C150.968 214.769 150.553 214.325 150.04 213.988C149.527 213.65 148.932 213.43 148.304 213.344L143.176 212.647C141.818 212.462 140.483 211.881 139.315 210.967C139.107 210.804 138.891 210.725 138.653 210.725C138.114 210.725 137.216 210.994 136.348 211.254C135.375 211.545 134.369 211.847 133.648 211.847C132.875 211.847 131.976 211.601 131.107 211.362C130.053 211.074 128.962 210.776 128.463 211.049C128.3 211.139 128.196 211.3 128.145 211.544Z" fill="#242D35"/>
<path d="M73.2153 167.105C74.9598 166.594 76.3117 165.059 77.5328 164.823C78.7538 164.587 78.7786 166.948 78.7786 166.948L74.8725 168.246L73.2153 167.105V167.105Z" fill="url(#paint5_linear_2041_7652)"/>
<path d="M74.8724 168.548C74.8 168.548 74.7288 168.527 74.6696 168.486L73.0124 167.345C72.9638 167.312 72.9264 167.267 72.904 167.216C72.8816 167.165 72.8752 167.109 72.8854 167.054C72.8957 167 72.9222 166.95 72.9621 166.908C73.002 166.866 73.0538 166.835 73.1119 166.818C73.9586 166.57 74.7097 166.064 75.4359 165.575C76.137 165.102 76.7995 164.656 77.4626 164.528C77.7802 164.466 78.0776 164.528 78.3225 164.705C79.0736 165.247 79.1111 166.773 79.1129 166.945C79.1136 167.008 79.0929 167.068 79.0537 167.12C79.0145 167.171 78.9588 167.21 78.8941 167.231L74.988 168.53C74.951 168.542 74.9119 168.548 74.8725 168.548L74.8724 168.548ZM73.8874 167.188L74.929 167.906L78.4353 166.74C78.3979 166.19 78.2398 165.417 77.9042 165.175C77.8166 165.112 77.7235 165.094 77.6025 165.118C77.0824 165.218 76.4769 165.626 75.8358 166.058C75.252 166.451 74.6062 166.886 73.8874 167.188V167.188Z" fill="#242D35"/>
<path d="M135.566 129.57C137.047 128.843 138.74 127.931 139.525 127.341C140.31 126.75 141.255 125.972 141.989 125.57C143.821 124.566 144.789 125.323 146.797 124.537C148.531 123.858 148.629 125.127 147.353 125.747C148.444 125.609 148.727 126.121 148.226 126.869C149.12 126.75 149.643 127.478 148.989 128.01C150.068 128.128 149.812 128.99 148.067 129.928C144.868 131.65 143.112 131.31 141.728 132.034C139.787 133.047 139.133 133.598 137.432 135.211C135.829 133.647 135.01 132.02 135.566 129.57Z" fill="url(#paint6_linear_2041_7652)"/>
<path d="M137.432 135.513H137.429C137.384 135.513 137.339 135.504 137.297 135.487C137.255 135.47 137.217 135.446 137.186 135.416C135.299 133.574 134.717 131.808 135.238 129.51C135.248 129.467 135.268 129.426 135.297 129.391C135.326 129.355 135.363 129.326 135.406 129.305C136.776 128.633 138.521 127.703 139.311 127.109C139.493 126.972 139.683 126.825 139.878 126.676C140.542 126.163 141.23 125.633 141.816 125.312C142.868 124.735 143.678 124.699 144.462 124.664C145.113 124.634 145.786 124.604 146.664 124.26C147.975 123.747 148.381 124.271 148.473 124.444C148.642 124.757 148.53 125.152 148.217 125.498C148.443 125.573 148.579 125.691 148.662 125.804C148.76 125.938 148.87 126.194 148.736 126.587C149.091 126.659 149.383 126.851 149.526 127.127C149.646 127.357 149.645 127.608 149.534 127.84C149.823 127.977 149.92 128.179 149.951 128.313C150.079 128.859 149.471 129.524 148.239 130.187C146.244 131.261 144.811 131.549 143.659 131.78C142.951 131.923 142.392 132.035 141.895 132.295C140.035 133.266 139.396 133.786 137.674 135.419C137.643 135.449 137.605 135.472 137.564 135.488C137.522 135.505 137.477 135.513 137.432 135.513ZM135.864 129.767C135.457 131.713 135.919 133.19 137.439 134.767C139.031 133.267 139.719 132.734 141.56 131.772C142.146 131.466 142.78 131.339 143.513 131.191C144.618 130.969 145.994 130.693 147.896 129.669C149.03 129.059 149.329 128.576 149.297 128.438C149.286 128.392 149.163 128.333 148.949 128.309C148.885 128.302 148.825 128.279 148.775 128.242C148.726 128.205 148.689 128.156 148.67 128.101C148.651 128.045 148.649 127.986 148.666 127.93C148.683 127.874 148.718 127.824 148.765 127.785C148.861 127.707 149.009 127.552 148.921 127.383C148.848 127.243 148.619 127.121 148.274 127.167C148.211 127.175 148.147 127.167 148.089 127.144C148.032 127.121 147.982 127.083 147.947 127.035C147.912 126.988 147.893 126.932 147.891 126.875C147.89 126.818 147.907 126.761 147.94 126.712C148.146 126.404 148.157 126.21 148.104 126.137C148.048 126.06 147.83 125.991 147.4 126.045C147.322 126.056 147.243 126.041 147.176 126.003C147.109 125.966 147.06 125.908 147.036 125.841C147.011 125.773 147.014 125.701 147.043 125.635C147.072 125.569 147.126 125.515 147.195 125.481C147.755 125.209 147.936 124.827 147.872 124.707C147.835 124.639 147.548 124.572 146.93 124.813C145.94 125.201 145.173 125.236 144.495 125.266C143.731 125.301 143.07 125.33 142.163 125.828C141.623 126.123 140.957 126.637 140.312 127.134C140.116 127.286 139.923 127.434 139.739 127.572C138.76 128.309 136.673 129.367 135.864 129.767V129.767Z" fill="#242D35"/>
<path d="M131.784 131.414C133.093 130.854 135.566 129.57 135.566 129.57L140.615 136.943L135.742 139.619L131.457 135.103L131.784 131.413L131.784 131.414Z" fill="white"/>
<path d="M135.742 139.92C135.694 139.92 135.646 139.911 135.602 139.893C135.558 139.875 135.519 139.848 135.488 139.815L131.203 135.299C131.175 135.269 131.153 135.234 131.139 135.196C131.126 135.158 131.12 135.119 131.124 135.079L131.451 131.39C131.456 131.337 131.476 131.286 131.509 131.242C131.543 131.199 131.588 131.164 131.641 131.141C132.923 130.593 135.374 129.321 135.399 129.309C135.474 129.27 135.563 129.259 135.648 129.278C135.732 129.297 135.805 129.345 135.85 129.412L140.9 136.784C140.923 136.818 140.939 136.856 140.946 136.895C140.953 136.934 140.951 136.974 140.941 137.013C140.93 137.052 140.912 137.088 140.886 137.121C140.86 137.153 140.827 137.18 140.789 137.201L135.916 139.877C135.864 139.905 135.804 139.921 135.742 139.921V139.92ZM131.802 135.002L135.811 139.228L140.154 136.843L135.451 129.977C134.799 130.312 133.172 131.139 132.102 131.61L131.802 135.002L131.802 135.002Z" fill="#242D35"/>
<path d="M72.3213 133.657C76.0718 132.496 78.3832 132.22 81.7193 131.886C85.0554 131.551 95.8709 134.463 95.8709 134.463L108.082 164.922L86.887 170.038L70.9147 142.255L72.3211 133.657H72.3213Z" fill="white"/>
<path d="M86.8872 170.34C86.8259 170.34 86.7659 170.325 86.7136 170.296C86.6612 170.267 86.6186 170.226 86.5904 170.177L70.6179 142.394C70.5856 142.338 70.5737 142.274 70.584 142.211L71.9904 133.613C71.9994 133.558 72.0248 133.507 72.064 133.464C72.1032 133.421 72.1546 133.389 72.2126 133.371C75.9384 132.218 78.2759 131.927 81.6824 131.586C85.0456 131.247 95.5222 134.055 95.9666 134.174C96.0681 134.202 96.1493 134.271 96.1854 134.361L108.396 164.819C108.412 164.859 108.418 164.901 108.415 164.942C108.412 164.984 108.4 165.025 108.378 165.062C108.357 165.099 108.327 165.131 108.291 165.157C108.255 165.184 108.213 165.203 108.168 165.213L86.9736 170.329C86.9454 170.336 86.9164 170.34 86.8872 170.34V170.34ZM71.2612 142.203L87.0602 169.684L107.644 164.716L95.6142 134.71C94.2574 134.351 84.7691 131.885 81.7561 132.186C78.4648 132.516 76.2429 132.777 72.622 133.883L71.2612 142.203Z" fill="#242D35"/>
<path d="M80.7174 130.764L77.482 126.547C80.6725 125.015 80.831 121.929 80.4353 119.848C81.0072 119.608 81.6339 119.255 81.4796 118.683C81.391 118.355 80.891 118.103 79.9682 118.249C79.1749 116.387 76.0165 111.615 71.1439 112.643C66.1069 113.705 65.976 120.553 65.976 120.553L69.0505 123.504L71.7325 132.417L79.8441 133.273L80.7174 130.765V130.764Z" fill="url(#paint7_linear_2041_7652)"/>
<path d="M79.8441 133.575C79.8313 133.575 79.8182 133.574 79.8052 133.573L71.6937 132.717C71.6274 132.71 71.565 132.685 71.5144 132.646C71.4639 132.606 71.4275 132.554 71.41 132.496L68.7498 123.655L65.7324 120.759C65.6728 120.702 65.6402 120.626 65.6417 120.547C65.6472 120.258 65.8371 113.452 71.0678 112.349C75.9647 111.315 79.2013 115.824 80.1805 117.918C81.2091 117.825 81.6988 118.22 81.8046 118.612C82.006 119.36 81.2648 119.806 80.8044 120.021C81.0623 121.605 81.1519 124.904 77.9651 126.646L80.9926 130.593C81.0515 130.669 81.0675 130.766 81.0367 130.855L80.1633 133.364C80.1419 133.425 80.0995 133.478 80.0422 133.516C79.9848 133.554 79.9156 133.575 79.8445 133.575H79.8441ZM71.9958 132.141L79.6079 132.944L80.3495 130.815L77.207 126.719C77.1801 126.684 77.1618 126.644 77.1531 126.602C77.1445 126.56 77.1458 126.517 77.1569 126.476C77.1681 126.435 77.1888 126.396 77.2177 126.362C77.2467 126.328 77.2832 126.301 77.3248 126.281C80.5096 124.751 80.4341 121.626 80.1056 119.899C80.0932 119.834 80.1049 119.767 80.139 119.708C80.1731 119.649 80.2276 119.602 80.2942 119.574C81.1553 119.213 81.2064 118.947 81.1546 118.754C81.1158 118.611 80.7746 118.427 80.0258 118.546C79.9494 118.558 79.8707 118.546 79.8031 118.512C79.7355 118.477 79.6834 118.423 79.6557 118.357C78.873 116.519 75.8331 111.963 71.2198 112.936C66.8522 113.857 66.365 119.536 66.3154 120.438L69.2938 123.297C69.3314 123.333 69.3585 123.377 69.3728 123.425L71.9958 132.141Z" fill="#242D35"/>
<path d="M76.761 119.006C77.753 118.702 78.4048 118.051 78.2168 117.552C78.0289 117.053 77.0723 116.895 76.0803 117.199C75.0883 117.504 74.4365 118.155 74.6245 118.654C74.8124 119.153 75.769 119.311 76.761 119.006Z" fill="white"/>
<path d="M75.7873 119.462C75.0594 119.462 74.4797 119.207 74.3078 118.751C74.0567 118.084 74.7881 117.277 75.9727 116.914C77.1576 116.55 78.282 116.788 78.5333 117.455C78.7844 118.122 78.0532 118.929 76.8684 119.292C76.4936 119.407 76.1243 119.462 75.7871 119.462H75.7873ZM77.0677 117.346C76.8062 117.346 76.5033 117.388 76.1879 117.485C75.3411 117.745 74.8311 118.265 74.9409 118.557C75.0509 118.848 75.8064 118.981 76.6533 118.721C77.5 118.461 78.0101 117.941 77.9002 117.649C77.8312 117.466 77.5079 117.346 77.0677 117.346Z" fill="#242D35"/>
<path d="M77.3893 118.299C77.7291 118.299 78.0045 118.051 78.0045 117.744C78.0045 117.438 77.7291 117.189 77.3893 117.189C77.0496 117.189 76.7741 117.438 76.7741 117.744C76.7741 118.051 77.0496 118.299 77.3893 118.299Z" fill="#242D35"/>
<path d="M78.1991 122.878C77.4718 122.878 76.7034 122.64 76.1924 122.209C76.1276 122.154 76.0895 122.079 76.0865 121.999C76.0836 121.919 76.1159 121.841 76.1765 121.782C76.2371 121.724 76.3209 121.69 76.4095 121.687C76.4981 121.684 76.5843 121.713 76.6491 121.768C77.224 122.253 78.3123 122.423 78.9783 122.13C79.0581 122.095 79.15 122.091 79.2338 122.117C79.3175 122.143 79.3864 122.198 79.4254 122.27C79.5059 122.419 79.4369 122.6 79.2709 122.673C78.9543 122.812 78.5825 122.878 78.1991 122.878ZM77.4818 126.547C76.7258 126.967 74.8506 126.967 73.7603 126.547C73.2879 126.365 72.6264 127.006 74.1092 127.458C75.0571 127.748 76.0299 127.495 76.4642 128.128C77.1401 129.111 78.6582 129.333 79.1816 128.762L77.4818 126.547Z" fill="#242D35"/>
<path d="M78.307 129.374C78.259 129.374 78.2105 129.372 78.1612 129.369C77.3643 129.32 76.6051 128.906 76.18 128.287C76.0006 128.026 75.6705 127.983 75.1024 127.929C74.7665 127.898 74.3861 127.862 74.0022 127.745C73.3188 127.536 72.9387 127.255 72.8721 126.909C72.8322 126.701 72.9213 126.496 73.1107 126.36C73.3272 126.206 73.6336 126.17 73.8917 126.269C74.8824 126.651 76.6379 126.661 77.3068 126.29C77.3795 126.25 77.4668 126.236 77.5506 126.252C77.6344 126.267 77.7082 126.312 77.7568 126.375L79.4564 128.591C79.498 128.645 79.5187 128.71 79.5156 128.775C79.5124 128.841 79.4856 128.904 79.4391 128.955C79.1918 129.224 78.7844 129.374 78.307 129.374V129.374ZM73.5405 126.826C73.5808 126.887 73.751 127.031 74.2164 127.173C74.5297 127.269 74.856 127.299 75.1718 127.329C75.7693 127.385 76.3873 127.443 76.7484 127.969C77.1237 128.515 77.7687 128.74 78.2068 128.767C78.4064 128.779 78.5875 128.755 78.7264 128.699L77.3701 126.931C76.4207 127.269 74.6993 127.236 73.6293 126.825C73.6152 126.819 73.6001 126.817 73.5848 126.817C73.5696 126.817 73.5544 126.82 73.5405 126.826Z" fill="#242D35"/>
<path d="M145.063 174.764C144.987 175.675 144.707 177.515 144.31 179.885C144.291 179.997 144.271 180.111 144.251 180.226C142.593 189.998 139.045 208.091 139.045 208.091H125.962C125.962 208.091 128.318 186.016 128.055 177.633L99.1424 175.862L71.7977 242.446H57.4057L79.1249 168.778L107.412 161.223C107.412 161.223 114.959 161.591 122.829 162.397C124.035 162.521 125.123 162.632 126.114 162.733C129.461 163.076 131.678 163.305 133.376 163.506C142.71 164.613 145.456 170.125 145.063 174.764Z" fill="url(#paint8_linear_2041_7652)"/>
<path d="M145.063 174.764C144.987 175.675 144.707 177.515 144.31 179.885C144.291 179.997 144.271 180.111 144.251 180.226C142.481 178.175 143.754 175.322 142.22 173.64C141.758 173.132 141.093 172.795 140.643 172.278C140.047 171.593 139.899 170.683 139.56 169.869C137.723 165.449 132.445 166.155 130.994 166.078C127.167 165.879 127.014 164.044 126.114 162.733C129.461 163.076 131.678 163.305 133.376 163.506C142.71 164.613 145.456 170.125 145.063 174.764ZM57.4063 242.447L79.517 168.07L81.7195 167.638L58.998 242.447H57.4063Z" fill="white"/>
<path d="M71.798 242.748H57.4065C57.3553 242.748 57.3048 242.738 57.2589 242.717C57.213 242.697 57.1729 242.667 57.1417 242.63C57.1105 242.594 57.089 242.551 57.0789 242.506C57.0688 242.461 57.0703 242.414 57.0834 242.369L78.8015 168.701C78.8161 168.651 78.8448 168.606 78.8848 168.568C78.9248 168.531 78.9747 168.504 79.0297 168.49L107.317 160.934C107.355 160.924 107.396 160.92 107.435 160.922C107.601 160.933 124.054 161.98 132.024 162.94C142.065 164.151 146.017 168.093 145.238 176.122C144.793 180.717 139.429 207.871 139.375 208.145C139.361 208.215 139.32 208.278 139.26 208.323C139.2 208.369 139.124 208.394 139.046 208.394H125.962C125.916 208.394 125.87 208.385 125.827 208.368C125.784 208.351 125.746 208.326 125.715 208.295C125.684 208.264 125.66 208.227 125.645 208.187C125.63 208.147 125.625 208.105 125.629 208.063C125.653 207.845 127.929 186.383 127.729 177.916L99.3684 176.179L72.1115 242.551C72.0878 242.609 72.045 242.659 71.989 242.694C71.933 242.729 71.8663 242.748 71.798 242.748ZM57.8415 242.145H71.5655L98.8284 175.757C98.8531 175.696 98.8993 175.644 98.96 175.608C99.0207 175.573 99.0926 175.556 99.1646 175.561L128.079 177.332C128.161 177.337 128.239 177.37 128.297 177.424C128.354 177.478 128.388 177.55 128.39 177.624C128.632 185.369 126.621 204.998 126.33 207.79H138.766C139.309 205.034 144.152 180.403 144.572 176.069C145.322 168.341 141.661 164.711 131.935 163.538C124.23 162.609 108.553 161.598 107.449 161.528L79.3996 169.02L57.8415 242.145Z" fill="#242D35"/>
<path d="M78.4832 166.682L107.169 159.507L107.941 162.021L79.2555 169.196L78.4832 166.682Z" fill="url(#paint9_linear_2041_7652)"/>
<path d="M79.2557 169.498C79.1826 169.498 79.1115 169.476 79.0533 169.436C78.9951 169.396 78.9531 169.34 78.9335 169.276L78.1612 166.762C78.1494 166.724 78.1461 166.684 78.1514 166.645C78.1568 166.605 78.1707 166.567 78.1923 166.533C78.214 166.498 78.2429 166.468 78.2776 166.444C78.3122 166.419 78.3519 166.401 78.3942 166.391L107.08 159.216C107.165 159.195 107.257 159.205 107.334 159.244C107.411 159.284 107.468 159.349 107.492 159.426L108.264 161.94C108.276 161.979 108.279 162.019 108.274 162.058C108.268 162.097 108.254 162.135 108.233 162.17C108.211 162.204 108.182 162.235 108.148 162.259C108.113 162.283 108.073 162.301 108.031 162.312L79.3451 169.487C79.316 169.494 79.2859 169.498 79.2557 169.498ZM78.8951 166.892L79.4889 168.825L107.53 161.811L106.936 159.878L78.8951 166.892Z" fill="#242D35"/>
<path d="M94.1472 162.764L99.2393 161.49L100.012 164.005L94.9194 165.278L94.1472 162.764Z" fill="white"/>
<path d="M94.9196 165.58C94.8464 165.58 94.7754 165.558 94.7172 165.518C94.659 165.478 94.617 165.422 94.5974 165.359L93.8251 162.844C93.8133 162.806 93.81 162.766 93.8153 162.727C93.8207 162.687 93.8345 162.649 93.8562 162.615C93.8778 162.58 93.9068 162.55 93.9415 162.526C93.9761 162.501 94.0158 162.483 94.0581 162.473L99.1502 161.199C99.1926 161.189 99.2368 161.186 99.2804 161.19C99.324 161.195 99.3661 161.208 99.4044 161.227C99.4426 161.247 99.4762 161.273 99.5032 161.304C99.5302 161.336 99.5501 161.371 99.5618 161.41L100.334 163.924C100.358 164.001 100.346 164.084 100.303 164.153C100.259 164.223 100.186 164.274 100.101 164.295L95.009 165.569C94.9799 165.576 94.9498 165.58 94.9196 165.58ZM94.559 162.974L95.1528 164.907L99.6003 163.794L99.0066 161.862L94.5591 162.974H94.559ZM93.647 178.112C93.5694 178.112 93.4941 178.088 93.434 178.044C93.374 177.999 93.3329 177.937 93.3179 177.869C93.3029 177.8 93.3148 177.729 93.3517 177.667C93.3886 177.605 93.4481 177.557 93.52 177.531L107.166 172.482C107.206 172.467 107.25 172.459 107.294 172.459C107.338 172.459 107.381 172.467 107.422 172.483C107.462 172.498 107.499 172.52 107.53 172.548C107.561 172.577 107.585 172.61 107.602 172.647C107.619 172.683 107.627 172.723 107.627 172.762C107.627 172.802 107.618 172.841 107.601 172.878C107.584 172.914 107.559 172.947 107.528 172.975C107.497 173.003 107.46 173.025 107.419 173.04L93.7736 178.089C93.7321 178.105 93.6892 178.112 93.6469 178.112H93.647Z" fill="#242D35"/>
<path d="M102.02 174.925C101.953 174.925 101.888 174.906 101.833 174.873C101.777 174.839 101.735 174.791 101.71 174.735L97.2692 164.725C97.2375 164.651 97.2394 164.569 97.2745 164.496C97.3097 164.423 97.3751 164.366 97.4568 164.336C97.5384 164.307 97.6297 164.308 97.7108 164.338C97.7918 164.369 97.8562 164.427 97.8899 164.501L102.331 174.51C102.351 174.556 102.359 174.606 102.353 174.655C102.347 174.704 102.328 174.751 102.297 174.792C102.267 174.833 102.225 174.866 102.177 174.889C102.129 174.912 102.075 174.925 102.02 174.925H102.02Z" fill="#242D35"/>
<path d="M96.3942 172.8C96.3273 172.799 96.262 172.781 96.2067 172.747C96.1513 172.714 96.1085 172.665 96.0838 172.609L93.0611 165.777C93.0448 165.74 93.0367 165.701 93.0373 165.661C93.0379 165.622 93.0471 165.583 93.0644 165.546C93.0817 165.51 93.1068 165.477 93.1383 165.449C93.1697 165.422 93.2069 165.4 93.2477 165.385C93.2884 165.37 93.332 165.363 93.3759 165.364C93.4198 165.364 93.4632 165.372 93.5035 165.388C93.5439 165.404 93.5804 165.426 93.6111 165.455C93.6417 165.483 93.6659 165.517 93.6821 165.553L96.5836 172.112L100.353 170.845C100.394 170.831 100.438 170.824 100.483 170.825C100.527 170.826 100.571 170.835 100.611 170.851C100.652 170.868 100.688 170.891 100.718 170.92C100.749 170.949 100.772 170.984 100.788 171.021C100.803 171.059 100.81 171.099 100.809 171.139C100.807 171.178 100.796 171.218 100.778 171.254C100.759 171.29 100.732 171.323 100.699 171.35C100.667 171.377 100.628 171.397 100.586 171.411L96.5109 172.78C96.4736 172.793 96.4341 172.799 96.3942 172.8ZM83.7085 213.443C84.1616 209.922 81.8444 206.725 82.3805 204.426C83.2458 200.713 87.3016 201.245 93.0281 190.749C89.9941 197.948 83.7085 213.443 83.7085 213.443Z" fill="#242D35"/>
<path d="M83.7089 213.745C83.6617 213.745 83.615 213.736 83.572 213.718C83.529 213.701 83.4905 213.676 83.4591 213.644C83.4277 213.612 83.4042 213.575 83.39 213.534C83.3758 213.493 83.3712 213.451 83.3767 213.408C83.6074 211.614 83.0828 209.863 82.6201 208.318C82.1894 206.882 81.7827 205.524 82.0533 204.363C82.4402 202.704 83.4469 201.831 84.8405 200.623C86.6752 199.032 89.4478 196.628 92.7284 190.616C92.7665 190.546 92.8327 190.493 92.9133 190.466C92.994 190.44 93.0828 190.442 93.1615 190.473C93.2402 190.504 93.3027 190.561 93.3361 190.632C93.3695 190.704 93.3711 190.784 93.3408 190.856C90.3422 197.971 84.0857 213.392 84.0228 213.547C83.9993 213.605 83.9566 213.655 83.9005 213.69C83.8443 213.726 83.7775 213.745 83.709 213.745H83.7089ZM91.0369 194.666C88.7032 198.111 86.7265 199.824 85.3037 201.058C83.9479 202.233 83.052 203.01 82.7077 204.488C82.4701 205.507 82.8387 206.737 83.2655 208.161C83.592 209.251 83.9484 210.44 84.0638 211.693C85.4232 208.349 88.5867 200.581 91.0369 194.666ZM67.6113 238.616C67.5586 238.616 67.5067 238.605 67.4598 238.583C67.4129 238.562 67.3723 238.53 67.3413 238.492C67.3103 238.453 67.2898 238.409 67.2814 238.362C67.2731 238.315 67.2771 238.267 67.2932 238.222L87.9646 180.492C87.9919 180.415 88.0516 180.352 88.1306 180.316C88.1697 180.298 88.2123 180.287 88.2561 180.284C88.2999 180.28 88.3439 180.285 88.3857 180.297C88.4275 180.309 88.4662 180.329 88.4997 180.355C88.5331 180.38 88.5606 180.412 88.5806 180.447C88.6006 180.482 88.6127 180.521 88.6162 180.56C88.6197 180.6 88.6146 180.64 88.601 180.677L67.9296 238.407C67.9079 238.468 67.8654 238.521 67.8082 238.558C67.7511 238.596 67.682 238.616 67.6113 238.616ZM130.018 204.498C129.972 204.498 129.927 204.489 129.884 204.473C129.842 204.456 129.804 204.432 129.773 204.401C129.741 204.37 129.717 204.334 129.702 204.295C129.687 204.256 129.681 204.214 129.685 204.172L131.124 187.644C131.131 187.565 131.173 187.491 131.24 187.439C131.308 187.387 131.395 187.361 131.483 187.367C131.527 187.37 131.57 187.381 131.609 187.399C131.648 187.417 131.683 187.442 131.711 187.472C131.74 187.502 131.762 187.537 131.775 187.575C131.789 187.612 131.794 187.652 131.791 187.692L130.351 204.22C130.345 204.295 130.307 204.366 130.245 204.417C130.183 204.469 130.103 204.498 130.018 204.498ZM128.056 177.633C131.414 177.83 133.202 179.246 133.027 181.175C132.853 183.103 128.317 189.99 127.26 194.16C127.707 186.999 128.143 181.726 128.056 177.633V177.633Z" fill="#242D35"/>
<path d="M127.26 194.462C127.215 194.462 127.17 194.454 127.128 194.437C127.086 194.421 127.049 194.397 127.017 194.368C126.986 194.338 126.962 194.302 126.946 194.264C126.93 194.225 126.924 194.184 126.926 194.143C127.017 192.693 127.107 191.32 127.192 190.018C127.527 184.919 127.791 180.891 127.721 177.639C127.72 177.597 127.729 177.555 127.747 177.517C127.765 177.478 127.791 177.443 127.825 177.415C127.858 177.386 127.898 177.363 127.941 177.349C127.985 177.335 128.031 177.329 128.077 177.332C130.117 177.451 131.668 178.009 132.563 178.944C133.162 179.57 133.437 180.349 133.361 181.199C133.275 182.147 132.297 184.03 131.058 186.413C129.693 189.042 128.146 192.021 127.586 194.227C127.569 194.294 127.528 194.353 127.469 194.396C127.41 194.439 127.336 194.462 127.261 194.462L127.26 194.462ZM128.396 177.96C128.442 181.176 128.184 185.113 127.86 190.054C127.824 190.599 127.787 191.156 127.75 191.726C128.49 189.936 129.514 187.965 130.453 186.157C131.566 184.014 132.618 181.989 132.694 181.15C132.757 180.456 132.542 179.846 132.057 179.339C131.333 178.582 130.071 178.108 128.396 177.96ZM133.158 178.23C133.09 178.23 133.023 178.211 132.967 178.176C132.911 178.14 132.868 178.09 132.844 178.033C132.821 177.975 132.817 177.912 132.835 177.852C132.852 177.792 132.889 177.739 132.941 177.699C133.25 177.461 133.262 177.358 133.262 177.357C133.231 177.309 133.001 177.21 132.877 177.157C132.587 177.032 132.259 176.89 132.207 176.587C132.158 176.297 132.411 176.085 132.494 176.015C132.81 175.751 132.847 175.546 132.795 175.472C132.741 175.396 132.513 175.329 132.13 175.472C131.662 175.646 131.164 175.572 130.889 175.286C130.643 175.029 130.633 174.665 130.864 174.312C130.909 174.244 130.955 174.151 130.925 174.095C130.856 173.97 130.519 173.793 129.303 173.664L113.705 172.622C113.661 172.619 113.618 172.608 113.579 172.59C113.54 172.572 113.505 172.548 113.476 172.518C113.448 172.488 113.426 172.453 113.412 172.415C113.398 172.378 113.393 172.338 113.396 172.298C113.399 172.259 113.411 172.22 113.431 172.185C113.451 172.15 113.478 172.118 113.511 172.092C113.545 172.066 113.583 172.047 113.625 172.034C113.666 172.022 113.71 172.017 113.754 172.02L129.367 173.063C130.48 173.181 131.265 173.356 131.524 173.827C131.614 173.991 131.673 174.262 131.44 174.619C131.402 174.676 131.323 174.817 131.394 174.891C131.464 174.963 131.656 174.996 131.875 174.915C132.508 174.679 133.09 174.77 133.358 175.147C133.566 175.44 133.569 175.939 132.95 176.457C132.936 176.469 132.923 176.481 132.91 176.493C132.98 176.533 133.091 176.58 133.165 176.612C133.48 176.748 133.872 176.917 133.925 177.283C133.978 177.647 133.636 177.957 133.375 178.158C133.315 178.204 133.238 178.23 133.158 178.23L133.158 178.23Z" fill="#242D35"/>
<path d="M92.4036 169.25C87.9333 171.297 81.4788 172.242 77.2275 171.021C76.96 168.6 76.4853 166.085 75.7898 163.532V163.529C74.6831 159.471 73.0181 155.319 70.7311 151.311C68.4693 147.342 65.6005 143.514 62.0631 140.053C61.7388 139.735 61.4078 139.419 61.0701 139.107C63.3805 137.531 66.2024 136.099 68.8203 134.992C70.0574 134.469 71.2494 134.018 72.3209 133.657C76.0038 135.816 80.4373 140.317 84.2388 146.433C88.0922 152.634 91.2952 160.493 92.4036 169.25Z" fill="url(#paint10_linear_2041_7652)"/>
<path d="M68.8203 134.992C68.282 135.917 67.391 136.807 66.6888 137.359C65.8898 137.989 64.8265 138.258 63.9037 138.73C63.2133 139.085 62.6165 139.543 62.0631 140.053C61.7388 139.735 61.4078 139.419 61.0701 139.107C63.3805 137.531 66.2024 136.099 68.8203 134.992Z" fill="white"/>
<path d="M81.6235 171.862C79.97 171.862 78.4283 171.683 77.1262 171.309C77.064 171.291 77.0089 171.257 76.9678 171.211C76.9267 171.166 76.9013 171.11 76.8948 171.051C76.6237 168.598 76.1426 166.092 75.465 163.604C75.4632 163.597 75.4617 163.59 75.4605 163.584C74.3053 159.353 72.6142 155.271 70.4339 151.449C67.8447 146.904 64.6137 142.823 60.8307 139.318C60.7976 139.287 60.7721 139.251 60.7559 139.21C60.7397 139.17 60.7332 139.127 60.7368 139.085C60.7404 139.042 60.754 139 60.7767 138.963C60.7994 138.925 60.8307 138.892 60.8685 138.867C64.4504 136.423 69.0728 134.427 72.2043 133.374C72.2532 133.358 72.3057 133.352 72.3576 133.357C72.4095 133.362 72.4594 133.378 72.5032 133.404C76.5227 135.76 80.9065 140.455 84.5304 146.285C87.5684 151.174 91.4579 159.121 92.7359 169.216C92.7437 169.278 92.7305 169.339 92.6981 169.394C92.6658 169.448 92.6159 169.492 92.555 169.52C89.2532 171.032 85.181 171.862 81.6235 171.862V171.862ZM77.5378 170.792C81.4403 171.826 87.4564 171.116 92.0445 169.075C90.7524 159.18 86.934 151.387 83.9471 146.58C80.4694 140.986 76.119 136.295 72.2792 133.993C69.2852 135.014 64.9929 136.872 61.5745 139.144C65.2901 142.636 68.4694 146.682 71.0284 151.173C73.2354 155.041 74.9466 159.174 76.1145 163.457C76.1163 163.463 76.118 163.47 76.1191 163.477C76.7833 165.92 77.2603 168.379 77.5376 170.792L77.5378 170.792Z" fill="#242D35"/>
<path d="M84.2388 146.433L84.2371 146.434L74.4792 143.633L75.1345 138.733L70.1627 137.434L72.3209 133.657C76.0038 135.816 80.4373 140.317 84.2388 146.433Z" fill="url(#paint11_linear_2041_7652)"/>
<path d="M84.2371 146.736C84.2032 146.736 84.1691 146.731 84.1358 146.722L74.3779 143.92C74.3037 143.899 74.2401 143.855 74.198 143.796C74.1559 143.737 74.138 143.666 74.1473 143.597L74.7685 138.952L70.07 137.724C70.0225 137.712 69.9787 137.69 69.9417 137.66C69.9047 137.631 69.8754 137.594 69.8559 137.553C69.8364 137.513 69.8271 137.468 69.8289 137.424C69.8307 137.379 69.8433 137.336 69.866 137.296L72.024 133.519C72.0455 133.481 72.0754 133.448 72.1118 133.422C72.1483 133.395 72.1904 133.376 72.2356 133.365C72.2807 133.355 72.3279 133.352 72.3741 133.359C72.4202 133.366 72.4643 133.381 72.5035 133.404C76.523 135.76 80.9069 140.455 84.5307 146.285C84.5664 146.342 84.5803 146.409 84.5703 146.474C84.5604 146.539 84.5271 146.599 84.4755 146.646L84.4738 146.647C84.4112 146.704 84.3261 146.736 84.2375 146.736H84.2371ZM74.8441 143.421L83.5256 145.913C80.1736 140.694 76.0911 136.337 72.4468 134.095L70.6462 137.246L75.2274 138.443C75.3036 138.463 75.3695 138.507 75.4132 138.567C75.457 138.626 75.4758 138.698 75.4663 138.769L74.8441 143.421ZM75.7898 163.528C74.6831 159.471 73.0181 155.319 70.7311 151.311C70.7378 151.297 70.7428 151.285 70.7495 151.273C72.4513 150.569 74.9055 150.214 76.278 152.094C77.4866 153.752 74.8737 159.332 75.7898 163.528Z" fill="#242D35"/>
<path d="M75.7895 163.83C75.7148 163.83 75.6422 163.808 75.5834 163.766C75.5247 163.724 75.483 163.666 75.4652 163.601C74.31 159.364 72.6172 155.276 70.4339 151.449C70.411 151.409 70.3983 151.365 70.3969 151.32C70.3955 151.275 70.4053 151.23 70.4257 151.188C70.4366 151.165 70.4431 151.152 70.4504 151.139C70.4845 151.077 70.5409 151.028 70.6101 150.999C71.5591 150.606 74.793 149.513 76.557 151.928C77.2171 152.834 76.9025 154.557 76.5045 156.738C76.1083 158.909 75.6591 161.369 76.1178 163.47C76.1273 163.514 76.126 163.559 76.1139 163.602C76.1018 163.646 76.0793 163.686 76.0479 163.72C76.0165 163.755 75.977 163.783 75.9324 163.802C75.8877 163.821 75.8389 163.83 75.7895 163.83ZM71.1768 151.435C72.8385 154.386 74.2127 157.489 75.2786 160.693C75.3553 159.321 75.6093 157.931 75.8448 156.64C76.1895 154.752 76.515 152.968 75.9986 152.26C74.684 150.459 72.3666 150.996 71.1768 151.435Z" fill="#242D35"/>
<path d="M137.541 140.149C134.465 142.417 124.605 148.16 113.747 147.986C110.746 147.939 107.668 147.439 104.637 146.289L104.641 146.292C106.764 149.303 109.019 155.912 109.87 159.335C110.286 161.011 110.178 161.56 109.183 162.581C108.006 163.791 105.421 164.972 102.904 165.414C101.159 155.627 98.1561 148.308 93.848 142.58C90.5697 138.222 86.5341 134.785 81.7195 131.886C92.3618 129.705 101.346 133.69 108.892 134.763C108.974 134.775 109.056 134.785 109.138 134.796C110.288 134.95 111.403 135.034 112.486 135.015C115.637 134.957 118.521 134.649 121.059 134.23C121.069 134.229 121.081 134.226 121.091 134.224C126.492 133.33 130.317 131.936 131.785 131.414C133.157 133.361 137.541 140.149 137.541 140.149Z" fill="url(#paint12_linear_2041_7652)"/>
<path d="M102.904 165.716C102.824 165.716 102.747 165.69 102.687 165.644C102.627 165.597 102.586 165.533 102.574 165.462C100.884 155.986 97.9389 148.557 93.5711 142.749C90.4587 138.612 86.5212 135.141 81.5338 132.137C81.4794 132.104 81.4369 132.058 81.4115 132.004C81.3861 131.949 81.3789 131.889 81.3907 131.831C81.4026 131.773 81.433 131.72 81.4782 131.677C81.5235 131.635 81.5815 131.605 81.6453 131.592C89.3726 130.008 96.2177 131.638 102.257 133.075C104.612 133.636 106.836 134.165 108.944 134.465C109.025 134.477 109.105 134.487 109.185 134.498C110.405 134.661 111.482 134.733 112.479 134.713C115.314 134.662 118.18 134.399 120.998 133.934C121.012 133.931 121.025 133.928 121.037 133.927C126.242 133.064 129.946 131.745 131.528 131.181L131.662 131.133C131.734 131.108 131.814 131.105 131.888 131.127C131.962 131.149 132.025 131.193 132.067 131.252C133.427 133.182 137.786 139.93 137.83 139.998C137.87 140.06 137.884 140.133 137.87 140.204C137.855 140.274 137.814 140.338 137.752 140.384C137.309 140.711 126.875 148.292 114.242 148.292C114.075 148.292 113.909 148.291 113.741 148.289C110.831 148.243 108.037 147.774 105.419 146.894C107.384 150.141 109.388 156.018 110.196 159.269C110.635 161.037 110.493 161.694 109.434 162.781C108.194 164.055 105.535 165.26 102.967 165.711C102.946 165.715 102.925 165.716 102.903 165.716L102.904 165.716ZM82.5569 132.034C87.3105 134.989 91.0998 138.389 94.1245 142.41C98.5001 148.228 101.463 155.638 103.177 165.054C105.474 164.59 107.852 163.492 108.931 162.382C109.848 161.441 109.94 160.995 109.544 159.401C108.678 155.918 106.433 149.399 104.361 146.458C104.324 146.407 104.304 146.347 104.305 146.287C104.306 146.226 104.327 146.166 104.366 146.116C104.409 146.06 104.473 146.019 104.546 146C104.619 145.98 104.697 145.984 104.767 146.011C107.565 147.072 110.588 147.635 113.752 147.685C123.658 147.841 133.213 142.87 137.107 140.077C136.365 138.931 132.984 133.712 131.649 131.786C129.985 132.378 126.295 133.669 121.151 134.521L121.117 134.527C118.265 134.998 115.363 135.264 112.493 135.316C111.458 135.333 110.344 135.262 109.088 135.094C109.005 135.084 108.921 135.072 108.838 135.06C106.698 134.756 104.458 134.223 102.086 133.658C96.3222 132.286 89.8144 130.737 82.5565 132.034L82.5569 132.034Z" fill="#242D35"/>
<path d="M94.1272 137.336L93.848 142.58C90.5697 138.222 86.5341 134.785 81.7195 131.886C82.0471 131.906 87.497 132.928 87.497 132.928L87.4101 134.503L94.1272 137.336Z" fill="url(#paint13_linear_2041_7652)"/>
<path d="M93.848 142.881C93.7934 142.881 93.7397 142.869 93.6915 142.846C93.6433 142.823 93.6021 142.79 93.5715 142.749C90.4588 138.612 86.5214 135.14 81.5339 132.137C81.4726 132.1 81.4265 132.046 81.4028 131.983C81.379 131.92 81.379 131.852 81.4027 131.789C81.4264 131.726 81.4724 131.672 81.5337 131.635C81.595 131.598 81.668 131.58 81.7415 131.585C82.0756 131.605 86.6511 132.461 87.5651 132.633C87.7264 132.663 87.8392 132.794 87.8309 132.943L87.7553 134.316L94.2688 137.063C94.3288 137.088 94.3792 137.129 94.4134 137.18C94.4477 137.231 94.4643 137.291 94.4612 137.35L94.182 142.594C94.1778 142.671 94.1408 142.744 94.0786 142.798C94.0164 142.851 93.9339 142.881 93.848 142.881ZM83.2068 132.445C87.3723 135.12 90.7763 138.156 93.5613 141.68L93.7824 137.524L87.2687 134.776C87.2085 134.751 87.1581 134.71 87.1239 134.659C87.0896 134.607 87.0731 134.548 87.0764 134.488L87.149 133.171C85.8359 132.925 84.5219 132.683 83.207 132.445L83.2068 132.445ZM113.747 147.986C110.746 147.939 107.668 147.439 104.637 146.289C103.342 144.221 102.22 142.412 101.479 141.221C101.011 140.468 100.095 138.229 103.459 138.753C105.988 139.146 106.652 141.552 106.904 142.728C107.471 145.363 109.868 147.107 113.747 147.986Z" fill="#242D35"/>
<path d="M113.747 148.288H113.741C110.491 148.237 107.385 147.659 104.508 146.567C104.44 146.542 104.383 146.496 104.346 146.438C103.253 144.692 102.283 143.131 101.562 141.97L101.188 141.368C101.03 141.114 100.274 139.803 100.932 138.963C101.353 138.425 102.223 138.254 103.516 138.456C105.446 138.756 106.696 140.174 107.233 142.67C107.762 145.131 109.981 146.822 113.828 147.694C113.908 147.712 113.977 147.755 114.023 147.816C114.069 147.877 114.089 147.95 114.079 148.024C114.069 148.097 114.03 148.164 113.969 148.213C113.908 148.261 113.829 148.288 113.747 148.288L113.747 148.288ZM104.872 146.051C106.877 146.801 108.996 147.296 111.199 147.53C108.582 146.49 107.031 144.9 106.576 142.785C106.091 140.529 105.053 139.307 103.402 139.05C102.4 138.894 101.734 138.984 101.478 139.311C101.124 139.763 101.515 140.661 101.771 141.073L102.145 141.675C103.051 143.135 103.96 144.594 104.872 146.051H104.872ZM120.489 137.338C121.318 138.999 117.314 139.309 115.22 137.599C113.986 136.59 111.125 135.099 109.138 134.796C110.288 134.95 111.403 135.034 112.486 135.015C115.637 134.957 118.521 134.65 121.059 134.23C118.914 134.642 119.849 136.054 120.489 137.338Z" fill="#242D35"/>
<path d="M118.658 139.038C117.448 139.038 116 138.643 114.995 137.822C113.849 136.884 111.045 135.393 109.082 135.093C108.996 135.079 108.919 135.036 108.868 134.971C108.817 134.907 108.797 134.827 108.81 134.749C108.824 134.671 108.871 134.601 108.942 134.554C109.012 134.507 109.1 134.486 109.187 134.497C110.406 134.66 111.484 134.731 112.48 134.713C115.314 134.661 118.18 134.399 120.999 133.933C121.085 133.919 121.174 133.936 121.247 133.981C121.319 134.025 121.37 134.094 121.387 134.172C121.404 134.249 121.386 134.33 121.338 134.396C121.29 134.462 121.214 134.509 121.128 134.525C120.598 134.627 120.264 134.797 120.134 135.031C119.896 135.461 120.27 136.19 120.631 136.894C120.686 137.001 120.741 137.108 120.794 137.214C121.073 137.773 120.934 138.29 120.413 138.632C120.004 138.901 119.372 139.038 118.659 139.038H118.658ZM111.851 135.316C113.32 135.943 114.712 136.777 115.444 137.375C116.858 138.529 119.224 138.667 120.019 138.144C120.282 137.971 120.333 137.761 120.184 137.462C120.132 137.358 120.078 137.253 120.024 137.148C119.597 136.316 119.156 135.456 119.533 134.767C117.202 135.089 114.85 135.272 112.493 135.316C112.279 135.32 112.065 135.32 111.851 135.316L111.851 135.316ZM142.665 128.98C142.583 128.98 142.504 128.953 142.443 128.904C142.382 128.855 142.343 128.787 142.334 128.714C142.324 128.64 142.345 128.566 142.392 128.506C142.438 128.445 142.508 128.402 142.588 128.385C142.888 128.321 144.383 127.936 144.337 126.701C144.335 126.629 144.361 126.558 144.411 126.502C144.462 126.445 144.533 126.407 144.612 126.394C145.684 126.218 146.728 125.744 147.176 125.491C147.213 125.47 147.255 125.456 147.298 125.449C147.341 125.443 147.386 125.444 147.429 125.453C147.471 125.462 147.512 125.478 147.548 125.501C147.583 125.524 147.614 125.553 147.637 125.587C147.66 125.62 147.676 125.658 147.683 125.697C147.691 125.736 147.689 125.776 147.679 125.815C147.669 125.853 147.651 125.89 147.626 125.922C147.6 125.954 147.568 125.982 147.531 126.003C147.08 126.257 146.073 126.718 144.999 126.939C144.89 128.099 143.745 128.757 142.743 128.972C142.718 128.978 142.691 128.98 142.665 128.98L142.665 128.98Z" fill="#242D35"/>
<path d="M144.426 128.849C144.147 128.849 143.873 128.776 143.731 128.571C143.571 128.34 143.638 128.052 143.931 127.715C143.958 127.683 143.992 127.657 144.03 127.637C144.069 127.618 144.111 127.605 144.155 127.6C144.198 127.595 144.243 127.598 144.285 127.609C144.328 127.62 144.367 127.638 144.402 127.662C144.437 127.687 144.465 127.717 144.487 127.752C144.509 127.787 144.522 127.825 144.528 127.864C144.533 127.904 144.529 127.944 144.517 127.982C144.505 128.02 144.485 128.056 144.457 128.087C144.414 128.135 144.377 128.186 144.344 128.241C144.438 128.249 144.532 128.244 144.623 128.226C145.511 128.054 147.367 127.288 147.975 126.668C148.035 126.61 148.117 126.575 148.205 126.57C148.293 126.566 148.379 126.593 148.444 126.646C148.51 126.698 148.55 126.772 148.556 126.851C148.562 126.93 148.533 127.008 148.476 127.069C147.752 127.806 145.756 128.624 144.763 128.816C144.652 128.838 144.539 128.849 144.426 128.849Z" fill="#242D35"/>
<path d="M145.109 129.772C144.69 129.772 144.213 129.605 144.052 129.257C143.968 129.075 143.912 128.707 144.482 128.287C144.55 128.237 144.638 128.214 144.726 128.222C144.814 128.23 144.895 128.269 144.951 128.331C145.007 128.393 145.033 128.472 145.025 128.552C145.016 128.631 144.973 128.704 144.904 128.755C144.685 128.916 144.664 129.013 144.669 129.024C144.698 129.087 144.933 129.191 145.181 129.165C146.53 129.036 148.204 128.327 148.744 127.804C148.805 127.745 148.888 127.711 148.977 127.708C149.066 127.705 149.152 127.734 149.217 127.789C149.282 127.843 149.32 127.919 149.323 127.999C149.326 128.079 149.294 128.157 149.234 128.215C148.6 128.829 146.809 129.617 145.252 129.766C145.205 129.77 145.157 129.772 145.109 129.772Z" fill="#242D35"/>
<path d="M146.26 130.821C145.455 130.821 144.711 130.543 144.513 130.095C144.455 129.963 144.324 129.507 145.076 129.192C145.115 129.175 145.158 129.166 145.202 129.164C145.246 129.163 145.29 129.169 145.331 129.182C145.372 129.196 145.41 129.217 145.443 129.244C145.475 129.27 145.501 129.303 145.52 129.339C145.538 129.374 145.549 129.413 145.551 129.453C145.552 129.492 145.546 129.532 145.531 129.569C145.516 129.606 145.493 129.641 145.463 129.67C145.433 129.699 145.397 129.723 145.358 129.739C145.164 129.821 145.133 129.883 145.133 129.883C145.139 129.887 145.188 129.955 145.344 130.032C145.695 130.204 146.359 130.305 146.992 130.115C147.076 130.09 147.166 130.097 147.245 130.133C147.323 130.169 147.383 130.231 147.41 130.307C147.438 130.382 147.432 130.464 147.393 130.535C147.354 130.606 147.286 130.661 147.203 130.687C146.899 130.778 146.574 130.821 146.259 130.821L146.26 130.821Z" fill="#242D35"/>
<path d="M71.7325 132.417L71.5389 133.928L76.3443 137.7L79.8441 133.273L71.7325 132.417Z" fill="white"/>
<path d="M76.3443 138.002C76.2643 138.002 76.1862 137.976 76.1248 137.928L71.3194 134.156C71.2784 134.124 71.2467 134.083 71.2271 134.038C71.2074 133.992 71.2005 133.943 71.2067 133.894L71.4003 132.383C71.4105 132.303 71.4553 132.23 71.5249 132.181C71.5942 132.131 71.6822 132.108 71.7713 132.118L79.8827 132.973C79.9405 132.98 79.9955 132.999 80.0423 133.03C80.0891 133.061 80.1262 133.103 80.1497 133.151C80.1733 133.199 80.1826 133.251 80.1767 133.304C80.1708 133.356 80.1499 133.406 80.1161 133.448L76.6163 137.876C76.5854 137.915 76.5446 137.947 76.4973 137.969C76.4499 137.991 76.3974 138.002 76.3442 138.002L76.3443 138.002ZM71.8911 133.805L76.2858 137.255L79.2431 133.514L72.026 132.752L71.891 133.805L71.8911 133.805Z" fill="#242D35"/>
<path d="M80.7174 130.764L79.8441 133.273L84.7504 134.04L83.3437 131.62L80.7174 130.764Z" fill="white"/>
<path d="M84.7502 134.342C84.7313 134.342 84.7121 134.34 84.693 134.338L79.7868 133.57C79.7398 133.563 79.6952 133.546 79.6558 133.522C79.6164 133.498 79.5832 133.467 79.5584 133.43C79.5336 133.393 79.5178 133.352 79.5121 133.309C79.5063 133.267 79.5107 133.223 79.525 133.182L80.3985 130.674C80.4257 130.595 80.4874 130.53 80.5692 130.494C80.6095 130.476 80.6536 130.465 80.6986 130.463C80.7436 130.46 80.7887 130.466 80.8311 130.48L83.4574 131.336C83.536 131.362 83.601 131.413 83.64 131.48L85.0464 133.9C85.0731 133.946 85.0862 133.998 85.0844 134.049C85.0827 134.101 85.0661 134.152 85.0363 134.196C85.0066 134.241 84.9646 134.277 84.9145 134.303C84.8644 134.328 84.8079 134.342 84.7504 134.342L84.7502 134.342ZM80.2774 133.035L84.1392 133.639L83.108 131.864L80.9319 131.155L80.2774 133.035ZM69.3121 124.94C70.3361 124.27 69.8098 122.759 68.4529 122.444C67.0137 122.11 66.1104 120.639 67.4804 119.352C68.5488 118.349 70.4023 119.195 71.1572 121.02C72.055 123.19 72.7424 122.449 72.4112 121.225C71.798 118.959 70.3901 117.586 72.2776 116.479C74.0221 115.456 78.8563 115.412 78.6884 111.875C78.5575 109.12 76.3335 108.373 73.7169 108.373C71.1002 108.373 64.0353 110.695 64.7331 116.322C60.7209 121.635 67.5679 126.082 69.3121 124.94V124.94Z" fill="#242D35"/>
<path d="M68.5906 125.423C67.6337 125.423 66.369 124.87 65.2705 123.907C63.3494 122.223 62.122 119.334 64.388 116.244C64.1846 114.356 64.7963 112.677 66.2074 111.253C68.3828 109.058 71.9084 108.071 73.7167 108.071C77.1178 108.071 78.9031 109.347 79.0223 111.862C79.155 114.656 76.3791 115.462 74.3523 116.051C73.6065 116.268 72.902 116.473 72.4597 116.732C71.3458 117.386 71.5576 118.049 72.1427 119.487C72.342 119.977 72.568 120.533 72.736 121.153C72.95 121.944 72.7924 122.559 72.3435 122.684C71.8261 122.827 71.3368 122.317 70.8438 121.126C70.4357 120.139 69.651 119.404 68.8447 119.253C68.5423 119.196 68.1018 119.204 67.7215 119.562C67.2166 120.036 67.0332 120.551 67.1909 121.052C67.3532 121.568 67.8813 122 68.5361 122.152C69.3628 122.344 69.9962 122.94 70.1497 123.67C70.2766 124.273 70.0367 124.839 69.5081 125.185C69.2615 125.346 68.9474 125.423 68.5905 125.423L68.5906 125.423ZM73.7167 108.674C72.0809 108.674 68.7214 109.622 66.7057 111.656C65.3996 112.974 64.8476 114.532 65.0653 116.289C65.0743 116.36 65.0544 116.432 65.0092 116.492C62.3338 120.035 64.8894 122.732 65.7365 123.474C67.058 124.633 68.5784 125.048 69.1159 124.696C69.4338 124.488 69.5714 124.155 69.493 123.782C69.3875 123.281 68.9465 122.871 68.3694 122.736C67.4752 122.528 66.7773 121.946 66.5479 121.217C66.3249 120.508 66.5705 119.772 67.2395 119.143C67.7014 118.71 68.3195 118.538 68.9806 118.662C70.0223 118.857 70.9764 119.72 71.4707 120.915C71.7816 121.667 72.0185 121.948 72.1345 122.05C72.1687 121.924 72.1872 121.668 72.0866 121.296C71.9278 120.709 71.7086 120.17 71.5153 119.695C70.9638 118.34 70.4879 117.17 72.0958 116.227C72.613 115.923 73.3584 115.707 74.1477 115.477C76.1715 114.889 78.4654 114.222 78.3546 111.888C78.2504 109.696 76.7768 108.675 73.717 108.675L73.7167 108.674Z" fill="#242D35"/>
<path d="M73.2153 167.105C74.9707 167.046 79.3695 166.185 80.8254 165.806C82.5263 165.364 83.9327 166.161 81.5124 166.928C79.3118 167.626 78.2742 167.961 78.5686 168.463C78.863 168.965 83.0891 168.444 84.0962 168.286C85.4699 168.069 86.2549 168.66 85.3064 169.319C86.5384 169.643 86.2113 170.47 84.5869 171.001C81.8729 171.889 78.1435 171.68 78.0126 172.329C77.8817 172.978 80.3186 173.432 81.4796 173.618C82.9514 173.854 82.7259 174.935 81.2833 174.857C77.4565 174.651 73.3354 172.388 71.5036 173.244C71.6018 171.001 72.1142 168.079 73.2153 167.105V167.105Z" fill="url(#paint14_linear_2041_7652)"/>
<path d="M81.4284 175.163C81.3751 175.163 81.3201 175.162 81.2634 175.159C79.5235 175.065 77.725 174.556 76.1384 174.107C74.2948 173.586 72.5528 173.093 71.6574 173.512C71.6055 173.537 71.5473 173.548 71.4889 173.546C71.4304 173.543 71.3736 173.527 71.3243 173.499C71.2749 173.471 71.2346 173.431 71.2075 173.384C71.1803 173.337 71.1673 173.285 71.1696 173.232C71.2056 172.409 71.4622 168.233 72.9811 166.89C73.0406 166.837 73.1196 166.806 73.2028 166.804C74.8872 166.747 79.211 165.913 80.7327 165.517C81.8592 165.223 82.9277 165.412 83.1135 165.938C83.2301 166.267 83.0662 166.755 81.623 167.213C80.3196 167.626 78.9726 168.053 78.8575 168.295C79.3578 168.508 82.3002 168.262 84.0385 167.989C85.0033 167.837 85.772 168.036 85.9963 168.496C86.0555 168.617 86.1327 168.888 85.8853 169.213C86.2989 169.436 86.3813 169.719 86.3873 169.892C86.4059 170.421 85.7913 170.928 84.7007 171.285C83.331 171.733 81.7267 171.907 80.4376 172.047C79.6084 172.137 78.586 172.248 78.3523 172.399C78.4181 172.484 78.8563 172.891 81.5379 173.321C82.5567 173.484 82.8591 173.99 82.809 174.374C82.7575 174.765 82.3043 175.163 81.4284 175.163V175.163ZM72.5306 172.751C73.5779 172.751 74.8886 173.122 76.3383 173.532C77.8882 173.97 79.645 174.467 81.3031 174.557C81.8699 174.586 82.1311 174.406 82.1448 174.303C82.1588 174.195 81.9385 173.998 81.4207 173.915C78.3279 173.419 77.9342 172.908 77.8048 172.74C77.6933 172.595 77.6511 172.435 77.6832 172.275C77.7939 171.726 78.7043 171.627 80.3575 171.448C81.6128 171.312 83.1751 171.142 84.4725 170.718C85.3905 170.417 85.724 170.064 85.7186 169.911C85.7156 169.826 85.558 169.7 85.2123 169.608C85.153 169.593 85.0996 169.563 85.0582 169.521C85.0167 169.48 84.9887 169.429 84.9773 169.375C84.9658 169.32 84.9714 169.263 84.9934 169.211C85.0154 169.159 85.053 169.114 85.1019 169.08C85.346 168.91 85.4045 168.781 85.3841 168.739C85.3306 168.629 84.9016 168.465 84.1534 168.583C83.6106 168.668 82.2992 168.836 81.0914 168.923C78.7607 169.089 78.4146 168.846 78.273 168.604C78.146 168.387 78.1799 168.202 78.2307 168.085C78.4419 167.599 79.3021 167.309 81.4014 166.644C82.2175 166.385 82.4186 166.175 82.4629 166.112C82.329 166.006 81.7205 165.888 80.9182 166.097C79.4098 166.489 75.182 167.306 73.3653 167.401C72.5062 168.279 72.0047 170.653 71.8622 172.812C72.0707 172.77 72.294 172.751 72.5307 172.751L72.5306 172.751Z" fill="#242D35"/>
<path d="M68.985 166.536C70.7512 167.008 73.2152 167.105 73.2152 167.105L71.574 175.576L65.2127 174.524L68.985 166.536Z" fill="white"/>
<path d="M71.5742 175.878C71.5541 175.878 71.5341 175.876 71.514 175.873L65.1525 174.821C65.1031 174.813 65.0564 174.795 65.0158 174.768C64.9752 174.742 64.9418 174.707 64.918 174.667C64.8943 174.627 64.8808 174.583 64.8786 174.538C64.8764 174.493 64.8855 174.448 64.9053 174.406L68.6776 166.417C68.7097 166.349 68.7685 166.294 68.8427 166.263C68.9169 166.231 69.0014 166.225 69.0801 166.246C70.7855 166.702 73.2056 166.803 73.2299 166.804C73.2774 166.806 73.3238 166.817 73.3662 166.836C73.4086 166.856 73.4459 166.883 73.4757 166.916C73.5055 166.95 73.527 166.989 73.5389 167.03C73.5507 167.072 73.5526 167.115 73.5445 167.157L71.9035 175.628C71.8881 175.707 71.8383 175.777 71.7653 175.823C71.7092 175.859 71.6425 175.877 71.5742 175.877V175.878ZM65.6843 174.296L71.3029 175.224L72.8213 167.387C72.1055 167.343 70.5148 167.215 69.1777 166.898L65.6843 174.296Z" fill="#242D35"/>
<path d="M67.411 165.992C67.9075 166.197 68.4341 166.38 68.9858 166.535C68.9858 166.535 67.5464 173.56 66.6303 177.279C64.7546 177.279 60.6756 176.268 56.7035 174.103C51.6699 171.364 46.8085 166.772 46.8085 160.042C46.8085 148.001 59.4335 139.649 64.6894 136.947L65.3197 138.113L72.1905 150.834C70.7746 151.215 69.5024 151.702 68.379 152.261C64.2565 154.316 62.1166 157.374 62.1166 159.925C62.1166 162.282 64.1378 164.639 67.411 165.99V165.992Z" fill="url(#paint15_linear_2041_7652)"/>
<path d="M65.3197 138.113C64.8449 138.315 64.3584 138.498 63.9037 138.73C61.3694 140.029 60.0871 142.752 57.638 144.176C56.8122 144.656 55.856 144.986 55.1889 145.636C54.6205 146.187 54.3196 146.912 53.905 147.565C53.116 148.804 51.914 149.784 51.0213 150.964C49.6705 152.746 49.0821 154.895 48.517 156.992C48.1024 158.537 47.6845 160.145 48.0523 161.699C48.4167 163.237 49.5184 164.572 49.8628 166.114C49.9631 166.561 50.0115 167.046 50.3292 167.399C50.5833 167.68 50.9661 167.831 51.3205 167.998C53.9234 169.226 55.4363 171.674 56.7035 174.103C51.6699 171.364 46.8085 166.772 46.8085 160.042C46.8085 148.001 59.4335 139.649 64.6894 136.947L65.3197 138.113Z" fill="white"/>
<path d="M66.6303 177.58C64.4964 177.58 59.4564 176.291 54.9323 173.423C51.0736 170.978 46.474 166.671 46.474 160.042C46.474 154.748 48.8467 149.618 53.5262 144.794C57.8147 140.373 62.6459 137.65 64.5238 136.685C64.6006 136.648 64.6901 136.64 64.7735 136.662C64.8568 136.684 64.9274 136.735 64.9704 136.803C65.0134 136.871 65.0253 136.951 65.0038 137.027C64.9823 137.103 64.9289 137.168 64.855 137.209C63.0419 138.141 47.1428 146.699 47.1428 160.042C47.1428 166.412 51.5878 170.566 55.3168 172.93C59.5401 175.606 64.1844 176.871 66.3635 176.97C67.168 173.662 68.3405 168.015 68.6035 166.74C68.1507 166.604 67.7063 166.445 67.272 166.266C67.2618 166.262 67.2518 166.258 67.2422 166.252C63.8735 164.852 61.7823 162.43 61.7823 159.925C61.7823 157.057 64.3081 153.946 68.2173 151.997C69.4044 151.406 70.7091 150.917 72.0951 150.545C72.1373 150.534 72.1816 150.53 72.2255 150.534C72.2694 150.537 72.312 150.549 72.3509 150.568C72.3897 150.587 72.4241 150.612 72.452 150.643C72.4798 150.674 72.5006 150.71 72.5132 150.748C72.5258 150.786 72.5299 150.826 72.5252 150.866C72.5206 150.905 72.5073 150.943 72.4861 150.978C72.465 151.013 72.4364 151.044 72.402 151.069C72.3676 151.094 72.3281 151.113 72.2857 151.124C70.9454 151.483 69.6855 151.955 68.5405 152.526C64.8412 154.369 62.4508 157.274 62.4508 159.925C62.4508 162.198 64.4048 164.417 67.55 165.716C67.56 165.72 67.5697 165.725 67.5791 165.73C68.0688 165.93 68.5719 166.103 69.0853 166.247C69.1633 166.269 69.2298 166.316 69.272 166.379C69.3142 166.442 69.3294 166.517 69.3145 166.59C69.3001 166.66 67.8634 173.663 66.9567 177.344C66.9402 177.411 66.8988 177.471 66.8395 177.514C66.7802 177.557 66.7064 177.58 66.6303 177.58Z" fill="#242D35"/>
<path d="M67.411 165.99V165.992C63.9923 165.316 61.9662 163.286 61.0701 162.797C60.0236 162.227 60.154 164.489 59.2814 164.489C58.4087 164.489 57.9406 163.697 58.2783 161.931C58.7146 159.649 62.4209 154.729 68.379 152.261C64.2565 154.316 62.1166 157.374 62.1166 159.925C62.1166 162.283 64.1378 164.639 67.411 165.99Z" fill="#242D35"/>
<path d="M67.411 166.294C67.3871 166.294 67.3632 166.291 67.3395 166.287C64.636 165.752 62.7783 164.395 61.6683 163.584C61.3553 163.355 61.0852 163.158 60.8971 163.055C60.8107 163.008 60.7624 163.003 60.7485 163.008C60.6226 163.048 60.4613 163.441 60.365 163.677C60.1617 164.173 59.9088 164.791 59.2812 164.791C58.8711 164.791 58.5227 164.65 58.274 164.384C57.8313 163.909 57.7218 163.067 57.9488 161.88C58.4264 159.381 62.3661 154.42 68.2396 151.987C68.3181 151.955 68.4075 151.951 68.489 151.977C68.5705 152.003 68.6377 152.056 68.6766 152.126C68.7155 152.195 68.7231 152.276 68.6977 152.35C68.6724 152.425 68.6161 152.488 68.5406 152.526C64.8414 154.369 62.451 157.274 62.451 159.925C62.451 162.198 64.4049 164.417 67.5503 165.716C67.6086 165.74 67.6579 165.779 67.6926 165.828C67.7272 165.876 67.7456 165.933 67.7456 165.99V165.992C67.7455 166.072 67.7102 166.149 67.6475 166.205C67.5849 166.262 67.4999 166.294 67.4112 166.294H67.411ZM60.7604 162.403C60.9153 162.403 61.0768 162.448 61.243 162.539C61.4703 162.663 61.7435 162.862 62.0894 163.115C62.6521 163.526 63.4154 164.084 64.3867 164.592C62.7337 163.266 61.7823 161.614 61.7823 159.925C61.7823 158.358 62.5361 156.719 63.8576 155.236C60.6547 157.706 58.8735 160.594 58.6078 161.982C58.3564 163.299 58.6113 163.808 58.7855 163.995C58.9067 164.125 59.0687 164.188 59.2814 164.188C59.4432 164.188 59.6206 163.755 59.7379 163.468C59.9181 163.027 60.1045 162.572 60.5276 162.439C60.6025 162.415 60.6812 162.403 60.7605 162.403L60.7604 162.403ZM78.6326 170.637C78.5609 170.637 78.4954 170.636 78.436 170.634C78.3474 170.631 78.2637 170.596 78.2034 170.537C78.143 170.479 78.111 170.401 78.1142 170.321C78.1156 170.281 78.1257 170.242 78.1439 170.206C78.1621 170.17 78.1881 170.138 78.2203 170.11C78.2525 170.083 78.2904 170.063 78.3317 170.049C78.3729 170.035 78.4168 170.029 78.4608 170.031C79.6243 170.074 83.6425 169.68 85.1658 169.045C85.2056 169.028 85.2487 169.019 85.2926 169.017C85.3365 169.016 85.3803 169.022 85.4215 169.036C85.4627 169.049 85.5005 169.07 85.5328 169.097C85.565 169.124 85.5911 169.156 85.6095 169.192C85.6279 169.228 85.6383 169.267 85.64 169.307C85.6418 169.346 85.6349 169.386 85.6197 169.423C85.6046 169.46 85.5814 169.494 85.5516 169.523C85.5219 169.553 85.486 169.576 85.4461 169.593C83.8884 170.242 80.069 170.637 78.6323 170.637H78.6326ZM95.7113 162.674C95.6456 162.674 95.5814 162.657 95.5266 162.624C95.4719 162.592 95.429 162.545 95.4034 162.49C95.158 161.969 95.1862 160.807 95.2188 159.461C95.2464 158.326 95.2748 157.152 95.1108 156.576C94.8728 155.738 93.5808 154.073 92.5425 152.736C92.0743 152.133 91.6321 151.564 91.3143 151.11C90.7447 150.296 90.5011 148.93 90.243 147.485C90.0098 146.178 89.7686 144.826 89.2801 143.981C88.7309 143.032 87.5191 142.233 86.3472 141.46C85.3684 140.814 84.4438 140.204 83.875 139.505C83.435 138.964 83.3354 138.344 83.2301 137.687C83.0221 136.393 82.7864 134.925 79.6955 133.543C79.53 133.469 79.4623 133.288 79.5444 133.139C79.6265 132.99 79.8269 132.928 79.9924 133.003C83.3977 134.525 83.6717 136.23 83.8919 137.601C83.989 138.206 84.073 138.729 84.4142 139.148C84.9219 139.772 85.8059 140.355 86.7417 140.972C87.9758 141.786 89.2517 142.628 89.8731 143.702C90.4117 144.634 90.6616 146.034 90.9032 147.389C91.1392 148.711 91.3832 150.078 91.8798 150.787C92.1889 151.229 92.6268 151.793 93.0902 152.39C94.2151 153.839 95.4903 155.481 95.7586 156.426C95.9452 157.083 95.9158 158.298 95.8873 159.474C95.8604 160.589 95.8298 161.852 96.0189 162.255C96.0405 162.301 96.0492 162.351 96.0442 162.4C96.0392 162.45 96.0206 162.498 95.9902 162.539C95.9597 162.581 95.9183 162.615 95.8696 162.638C95.8209 162.662 95.7665 162.674 95.7113 162.674V162.674ZM68.222 121.464C68.1723 121.464 68.1232 121.454 68.0783 121.435C68.0334 121.416 67.9938 121.388 67.9624 121.353C67.6464 121.002 67.6071 120.549 67.8599 120.171C68.1003 119.81 68.551 119.62 68.9798 119.697C69.0229 119.704 69.0639 119.72 69.1004 119.742C69.1369 119.764 69.1683 119.792 69.1927 119.825C69.2171 119.858 69.2341 119.895 69.2427 119.933C69.2513 119.972 69.2513 120.012 69.2428 120.051C69.2342 120.09 69.2173 120.127 69.1929 120.16C69.1685 120.193 69.1372 120.221 69.1007 120.243C69.0642 120.265 69.0233 120.281 68.9802 120.288C68.9372 120.296 68.8928 120.296 68.8497 120.289C68.6719 120.255 68.5121 120.363 68.4326 120.482C68.3823 120.557 68.2864 120.756 68.4811 120.972C68.5209 121.016 68.5459 121.07 68.5534 121.126C68.5608 121.183 68.5504 121.24 68.5233 121.292C68.4962 121.343 68.4535 121.387 68.4001 121.417C68.3468 121.448 68.285 121.464 68.2218 121.464L68.222 121.464Z" fill="#242D35"/>
</g>
<g clip-path="url(#clip6_2041_7652)">
<path d="M52.8462 100.827H77.7871C79.2192 97.5222 72.695 95.1617 69.5126 98.3719C69.3004 93.7453 64.1023 91.6208 60.5485 91.6208C55.8808 91.6208 50.8418 95.3032 52.8462 100.827Z" fill="white"/>
</g>
<defs>
<linearGradient id="paint0_linear_2041_7652" x1="225.038" y1="60.9841" x2="125.882" y2="221.716" gradientUnits="userSpaceOnUse">
<stop stop-color="#2FDAFF"/>
<stop offset="1" stop-color="#0E33F3"/>
</linearGradient>
<linearGradient id="paint1_linear_2041_7652" x1="222.268" y1="76.8303" x2="56.1647" y2="277.202" gradientUnits="userSpaceOnUse">
<stop stop-color="#2FDAFF"/>
<stop offset="1" stop-color="#0E33F3"/>
</linearGradient>
<linearGradient id="paint2_linear_2041_7652" x1="189.907" y1="74.7178" x2="160.646" y2="130.622" gradientUnits="userSpaceOnUse">
<stop stop-color="#2FDAFF"/>
<stop offset="1" stop-color="#0E33F3"/>
</linearGradient>
<linearGradient id="paint3_linear_2041_7652" x1="69.1813" y1="240.4" x2="61.5005" y2="252.905" gradientUnits="userSpaceOnUse">
<stop stop-color="#2FDAFF"/>
<stop offset="1" stop-color="#0E33F3"/>
</linearGradient>
<linearGradient id="paint4_linear_2041_7652" x1="139.046" y1="206.006" x2="133.196" y2="216.268" gradientUnits="userSpaceOnUse">
<stop stop-color="#2FDAFF"/>
<stop offset="1" stop-color="#0E33F3"/>
</linearGradient>
<linearGradient id="paint5_linear_2041_7652" x1="78.7786" y1="164.806" x2="75.941" y2="169.796" gradientUnits="userSpaceOnUse">
<stop stop-color="#2FDAFF"/>
<stop offset="1" stop-color="#0E33F3"/>
</linearGradient>
<linearGradient id="paint6_linear_2041_7652" x1="149.633" y1="124.343" x2="139.824" y2="138.321" gradientUnits="userSpaceOnUse">
<stop stop-color="#2FDAFF"/>
<stop offset="1" stop-color="#0E33F3"/>
</linearGradient>
<linearGradient id="paint7_linear_2041_7652" x1="81.5033" y1="112.499" x2="61.9859" y2="128.365" gradientUnits="userSpaceOnUse">
<stop stop-color="#2FDAFF"/>
<stop offset="1" stop-color="#0E33F3"/>
</linearGradient>
<linearGradient id="paint8_linear_2041_7652" x1="145.1" y1="161.223" x2="68.1406" y2="251.588" gradientUnits="userSpaceOnUse">
<stop stop-color="#2FDAFF"/>
<stop offset="1" stop-color="#0E33F3"/>
</linearGradient>
<linearGradient id="paint9_linear_2041_7652" x1="107.941" y1="159.507" x2="102.788" y2="176.546" gradientUnits="userSpaceOnUse">
<stop stop-color="#2FDAFF"/>
<stop offset="1" stop-color="#0E33F3"/>
</linearGradient>
<linearGradient id="paint10_linear_2041_7652" x1="92.4036" y1="133.657" x2="56.2279" y2="166.177" gradientUnits="userSpaceOnUse">
<stop stop-color="#2FDAFF"/>
<stop offset="1" stop-color="#0E33F3"/>
</linearGradient>
<linearGradient id="paint11_linear_2041_7652" x1="84.2388" y1="133.657" x2="72.1736" y2="148.112" gradientUnits="userSpaceOnUse">
<stop stop-color="#2FDAFF"/>
<stop offset="1" stop-color="#0E33F3"/>
</linearGradient>
<linearGradient id="paint12_linear_2041_7652" x1="137.541" y1="131.243" x2="109.504" y2="181.053" gradientUnits="userSpaceOnUse">
<stop stop-color="#2FDAFF"/>
<stop offset="1" stop-color="#0E33F3"/>
</linearGradient>
<linearGradient id="paint13_linear_2041_7652" x1="94.1272" y1="131.886" x2="84.1352" y2="144.494" gradientUnits="userSpaceOnUse">
<stop stop-color="#2FDAFF"/>
<stop offset="1" stop-color="#0E33F3"/>
</linearGradient>
<linearGradient id="paint14_linear_2041_7652" x1="86.0536" y1="165.679" x2="78.4027" y2="178.865" gradientUnits="userSpaceOnUse">
<stop stop-color="#2FDAFF"/>
<stop offset="1" stop-color="#0E33F3"/>
</linearGradient>
<linearGradient id="paint15_linear_2041_7652" x1="72.1906" y1="136.947" x2="36.1074" y2="161.644" gradientUnits="userSpaceOnUse">
<stop stop-color="#2FDAFF"/>
<stop offset="1" stop-color="#0E33F3"/>
</linearGradient>
<clipPath id="clip0_2041_7652">
<rect width="172.309" height="115.604" fill="white" transform="translate(52.7288 60.9841)"/>
</clipPath>
<clipPath id="clip1_2041_7652">
<rect width="60.0572" height="17.2048" fill="white" transform="translate(167.992 123.465)"/>
</clipPath>
<clipPath id="clip2_2041_7652">
<rect width="216.139" height="176.726" fill="white" transform="translate(16.2595 76.5288)"/>
</clipPath>
<clipPath id="clip3_2041_7652">
<rect width="62.2319" height="17.6576" fill="white" transform="translate(92.2093 70.1902)"/>
</clipPath>
<clipPath id="clip4_2041_7652">
<rect width="67.4179" height="88.7405" fill="white" transform="translate(122.823 74.416)"/>
</clipPath>
<clipPath id="clip5_2041_7652">
<rect width="111.415" height="145.184" fill="white" transform="translate(41.1858 108.071)"/>
</clipPath>
<clipPath id="clip6_2041_7652">
<rect width="25.5954" height="9.20607" fill="white" transform="translate(52.3942 91.6208)"/>
</clipPath>
</defs>
</svg>
