<svg width="102" height="19" viewBox="0 0 102 19" fill="none" xmlns="http://www.w3.org/2000/svg">
<path d="M0.118693 18.5V1.04545H4.73233V4.125H4.93687C5.30051 3.10227 5.90657 2.29545 6.75506 1.70454C7.60354 1.11364 8.61869 0.818182 9.80051 0.818182C10.9975 0.818182 12.0164 1.11742 12.8573 1.71591C13.6982 2.30682 14.2588 3.10985 14.5391 4.125H14.721C15.077 3.125 15.721 2.32576 16.6528 1.72727C17.5922 1.12121 18.702 0.818182 19.9823 0.818182C21.6111 0.818182 22.9331 1.33712 23.9482 2.375C24.971 3.4053 25.4823 4.86742 25.4823 6.76136V18.5H20.6528V7.71591C20.6528 6.74621 20.3952 6.01894 19.8801 5.53409C19.3649 5.04924 18.721 4.80682 17.9482 4.80682C17.0695 4.80682 16.3838 5.08712 15.8914 5.64773C15.399 6.20076 15.1528 6.93182 15.1528 7.84091V18.5H10.4596V7.61364C10.4596 6.75758 10.2134 6.07576 9.72097 5.56818C9.23612 5.06061 8.59597 4.80682 7.80051 4.80682C7.26263 4.80682 6.77778 4.94318 6.34597 5.21591C5.92172 5.48106 5.5846 5.85606 5.3346 6.34091C5.0846 6.81818 4.9596 7.37879 4.9596 8.02273V18.5H0.118693ZM36.8726 18.8409C35.1074 18.8409 33.5809 18.4659 32.293 17.7159C31.0127 16.9583 30.0241 15.9053 29.3271 14.5568C28.6301 13.2008 28.2816 11.6288 28.2816 9.84091C28.2816 8.03788 28.6301 6.46212 29.3271 5.11364C30.0241 3.75758 31.0127 2.70454 32.293 1.95454C33.5809 1.19697 35.1074 0.818182 36.8726 0.818182C38.6377 0.818182 40.1604 1.19697 41.4407 1.95454C42.7286 2.70454 43.721 3.75758 44.418 5.11364C45.115 6.46212 45.4635 8.03788 45.4635 9.84091C45.4635 11.6288 45.115 13.2008 44.418 14.5568C43.721 15.9053 42.7286 16.9583 41.4407 17.7159C40.1604 18.4659 38.6377 18.8409 36.8726 18.8409ZM36.8953 15.0909C37.6983 15.0909 38.3688 14.8636 38.9066 14.4091C39.4445 13.947 39.8498 13.3182 40.1226 12.5227C40.4029 11.7273 40.543 10.822 40.543 9.80682C40.543 8.79167 40.4029 7.88636 40.1226 7.09091C39.8498 6.29545 39.4445 5.66667 38.9066 5.20455C38.3688 4.74242 37.6983 4.51136 36.8953 4.51136C36.0847 4.51136 35.4029 4.74242 34.8498 5.20455C34.3044 5.66667 33.8915 6.29545 33.6112 7.09091C33.3385 7.88636 33.2021 8.79167 33.2021 9.80682C33.2021 10.822 33.3385 11.7273 33.6112 12.5227C33.8915 13.3182 34.3044 13.947 34.8498 14.4091C35.4029 14.8636 36.0847 15.0909 36.8953 15.0909ZM53.1321 8.40909V18.5H48.2912V1.04545H52.9048V4.125H53.1094C53.4957 3.10985 54.1435 2.30682 55.0526 1.71591C55.9616 1.11742 57.0639 0.818182 58.3594 0.818182C59.5715 0.818182 60.6283 1.08333 61.5298 1.61364C62.4313 2.14394 63.1321 2.90151 63.6321 3.88636C64.1321 4.86364 64.3821 6.0303 64.3821 7.38636V18.5H59.5412V8.25C59.5488 7.18182 59.276 6.34848 58.723 5.75C58.17 5.14394 57.4086 4.84091 56.4389 4.84091C55.7874 4.84091 55.2116 4.98106 54.7116 5.26136C54.2192 5.54167 53.8329 5.95076 53.5526 6.48864C53.2798 7.01894 53.1397 7.65909 53.1321 8.40909ZM75.832 18.8409C74.0365 18.8409 72.4911 18.4773 71.1956 17.75C69.9077 17.0152 68.9153 15.9773 68.2184 14.6364C67.5214 13.2879 67.1729 11.6932 67.1729 9.85227C67.1729 8.05682 67.5214 6.48106 68.2184 5.125C68.9153 3.76894 69.8964 2.71212 71.1615 1.95454C72.4343 1.19697 73.9267 0.818182 75.6388 0.818182C76.7903 0.818182 77.8623 1.00379 78.8547 1.375C79.8547 1.73864 80.7259 2.28788 81.4684 3.02273C82.2184 3.75758 82.8017 4.68182 83.2184 5.79545C83.635 6.90151 83.8434 8.19697 83.8434 9.68182V11.0114H69.1047V8.01136H79.2865C79.2865 7.31439 79.135 6.69697 78.832 6.15909C78.529 5.62121 78.1085 5.20076 77.5706 4.89773C77.0403 4.58712 76.4229 4.43182 75.7184 4.43182C74.9835 4.43182 74.332 4.60227 73.7638 4.94318C73.2032 5.27651 72.7638 5.72727 72.4456 6.29545C72.1274 6.85606 71.9646 7.48106 71.957 8.17045V11.0227C71.957 11.8864 72.1161 12.6326 72.4343 13.2614C72.76 13.8902 73.2184 14.375 73.8093 14.7159C74.4002 15.0568 75.1009 15.2273 75.9115 15.2273C76.4494 15.2273 76.9418 15.1515 77.3888 15C77.8358 14.8485 78.2184 14.6212 78.5365 14.3182C78.8547 14.0152 79.0971 13.6439 79.2638 13.2045L83.7411 13.5C83.5138 14.5758 83.0479 15.5152 82.3434 16.3182C81.6464 17.1136 80.7449 17.7348 79.6388 18.1818C78.5403 18.6212 77.2714 18.8409 75.832 18.8409ZM90.4154 1.04545L93.6199 7.14773L96.904 1.04545H101.87L96.8131 9.77273L102.006 18.5H97.0631L93.6199 12.4659L90.2336 18.5H85.2336L90.4154 9.77273L85.4154 1.04545H90.4154Z" fill="#242D35"/>
</svg>
