<svg width="25" height="24" viewBox="0 0 25 24" fill="none" xmlns="http://www.w3.org/2000/svg">
<path d="M0.5 8C0.5 3.58172 4.08172 0 8.5 0H16.5C20.9183 0 24.5 3.58172 24.5 8V16C24.5 20.4183 20.9183 24 16.5 24H8.5C4.08172 24 0.5 20.4183 0.5 16V8Z" fill="white" fill-opacity="0.25"/>
<path d="M13.1667 6.66667C13.1667 6.29848 12.8682 6 12.5 6C12.1318 6 11.8333 6.29848 11.8333 6.66667V11.3333H7.16667C6.79848 11.3333 6.5 11.6318 6.5 12C6.5 12.3682 6.79848 12.6667 7.16667 12.6667H11.8333V17.3333C11.8333 17.7015 12.1318 18 12.5 18C12.8682 18 13.1667 17.7015 13.1667 17.3333V12.6667H17.8333C18.2015 12.6667 18.5 12.3682 18.5 12C18.5 11.6318 18.2015 11.3333 17.8333 11.3333H13.1667V6.66667Z" fill="white"/>
</svg>
