<svg width="10" height="16" viewBox="0 0 10 16" fill="none" xmlns="http://www.w3.org/2000/svg">
<path d="M4.43324 15.4545V0.90909H5.36506V15.4545H4.43324ZM7.5696 5.27273C7.50142 4.69697 7.22491 4.25 6.74006 3.93182C6.25521 3.61364 5.66051 3.45455 4.95597 3.45455C4.44081 3.45455 3.99006 3.53788 3.60369 3.70455C3.22112 3.87121 2.92188 4.10038 2.70597 4.39205C2.49384 4.68371 2.38778 5.01515 2.38778 5.38636C2.38778 5.69697 2.46165 5.96401 2.60938 6.1875C2.76089 6.4072 2.95407 6.59091 3.18892 6.73864C3.42377 6.88258 3.66998 7.00189 3.92756 7.09659C4.18513 7.1875 4.42188 7.26136 4.63778 7.31818L5.8196 7.63636C6.12263 7.71591 6.45975 7.82576 6.83097 7.96591C7.20597 8.10606 7.56392 8.29735 7.90483 8.53977C8.24953 8.77841 8.53362 9.08523 8.7571 9.46023C8.98059 9.83523 9.09233 10.2955 9.09233 10.8409C9.09233 11.4697 8.92756 12.0379 8.59801 12.5455C8.27225 13.053 7.79498 13.4564 7.16619 13.7557C6.54119 14.0549 5.78172 14.2045 4.88778 14.2045C4.05445 14.2045 3.33286 14.0701 2.72301 13.8011C2.11695 13.5322 1.63968 13.1572 1.29119 12.6761C0.946496 12.1951 0.75142 11.6364 0.705966 11H2.16051C2.19839 11.4394 2.34612 11.803 2.60369 12.0909C2.86506 12.375 3.1946 12.5871 3.59233 12.7273C3.99384 12.8636 4.42566 12.9318 4.88778 12.9318C5.42566 12.9318 5.90862 12.8447 6.33665 12.6705C6.76468 12.4924 7.10369 12.2462 7.35369 11.9318C7.60369 11.6136 7.72869 11.2424 7.72869 10.8182C7.72869 10.4318 7.62074 10.1174 7.40483 9.875C7.18892 9.63258 6.90483 9.43561 6.55256 9.28409C6.20028 9.13258 5.8196 9 5.41051 8.88636L3.97869 8.47727C3.0696 8.21591 2.34991 7.8428 1.8196 7.35795C1.2893 6.87311 1.02415 6.23864 1.02415 5.45455C1.02415 4.80303 1.20028 4.23485 1.55256 3.75C1.90862 3.26136 2.38589 2.88258 2.98438 2.61364C3.58665 2.34091 4.259 2.20455 5.00142 2.20455C5.75142 2.20455 6.41809 2.33901 7.00142 2.60795C7.58475 2.87311 8.04688 3.23674 8.38778 3.69886C8.73248 4.16098 8.9143 4.68561 8.93324 5.27273H7.5696Z" fill="#9BA1A8"/>
</svg>
