<svg width="25" height="24" viewBox="0 0 25 24" fill="none" xmlns="http://www.w3.org/2000/svg">
<path fill-rule="evenodd" clip-rule="evenodd" d="M23.5 12C23.5 18.0751 18.5751 23 12.5 23C6.42487 23 1.5 18.0751 1.5 12C1.5 5.92487 6.42487 1 12.5 1C18.5751 1 23.5 5.92487 23.5 12ZM12.4999 14C13.2363 14 13.8333 13.5758 13.8333 13.0526L14.4999 6.49998C14.4999 5.55262 13.8333 4.99998 12.4999 4.99998C11.1666 4.99998 10.4999 5.55262 10.4999 6.49998L11.1666 13.0526C11.1666 13.5758 11.7636 14 12.4999 14ZM12.49 19C11.3909 19 10.4999 18.1046 10.4999 17C10.4999 15.8954 11.3909 15 12.49 15H12.5099C13.609 15 14.4999 15.8954 14.4999 17C14.4999 18.1046 13.609 19 12.5099 19H12.49Z" fill="#EF4E4E"/>
</svg>
