<svg width="44" height="44" viewBox="0 0 44 44" fill="none" xmlns="http://www.w3.org/2000/svg">
<path d="M0 12C0 5.37258 5.37258 0 12 0H32C38.6274 0 44 5.37258 44 12V32C44 38.6274 38.6274 44 32 44H12C5.37258 44 0 38.6274 0 32V12Z" fill="#EBEEF0"/>
<g clip-path="url(#clip0_2070_5060)">
<path d="M16.8552 27.1454C16.1677 26.751 15.7031 26.0101 15.7031 25.1621C15.7031 21.662 18.5506 18.8145 22.0508 18.8145H24.6666L24.7898 16.7832H9.96802L11.0326 34.3488C11.057 34.7508 11.3901 35.0645 11.793 35.0645H16.4668C15.9876 34.4275 15.7031 33.636 15.7031 32.7793C15.7031 31.7916 16.3331 30.9484 17.2123 30.63C16.9007 30.1522 16.7188 29.5825 16.7188 28.9707C16.7188 28.3584 16.901 27.7881 17.2133 27.3098C16.9649 27.2539 16.8271 27.1989 16.8552 27.1454Z" fill="#242D35"/>
<path d="M17.3781 15.26C17.3787 15.26 17.3793 15.2598 17.3799 15.2598H24.9961C25.4168 15.2598 25.7578 14.9188 25.7578 14.498C25.7578 14.0773 25.4168 13.7363 24.9961 13.7363H18.7851L20.8384 10.5879H23.4727C23.8934 10.5879 24.2344 10.2469 24.2344 9.82617C24.2344 9.40544 23.8934 9.06445 23.4727 9.06445H20.4258C20.1683 9.06445 19.9283 9.19438 19.7878 9.41L16.9663 13.7363H9.76172C9.34099 13.7363 9 14.0773 9 14.498C9 14.9188 9.34099 15.2598 9.76172 15.2598H17.3753C17.3763 15.2598 17.3773 15.26 17.3781 15.26Z" fill="#242D35"/>
<path d="M17.2266 25.1621C17.2266 25.5828 17.5676 25.9238 17.9883 25.9238H34.2383C34.659 25.9238 35 25.5828 35 25.1621C35 22.502 32.8358 20.3379 30.1758 20.3379H22.0508C19.3907 20.3379 17.2266 22.502 17.2266 25.1621Z" fill="#242D35"/>
<path d="M19.7656 27.4473C18.9242 27.4473 18.2422 28.1292 18.2422 28.9707C18.2422 29.8122 18.9242 30.4941 19.7656 30.4941H32.4609C33.3024 30.4941 33.9844 29.8122 33.9844 28.9707C33.9844 28.1292 33.3024 27.4473 32.4609 27.4473H19.7656Z" fill="#242D35"/>
<path d="M34.2383 32.0176H17.9883C17.5676 32.0176 17.2266 32.3586 17.2266 32.7793C17.2266 34.0393 18.2517 35.0645 19.5117 35.0645H32.7148C33.9749 35.0645 35 34.0393 35 32.7793C35 32.3586 34.659 32.0176 34.2383 32.0176Z" fill="#242D35"/>
</g>
<defs>
<clipPath id="clip0_2070_5060">
<rect width="26" height="26" fill="white" transform="translate(9 9.06445)"/>
</clipPath>
</defs>
</svg>
