<svg width="32" height="32" viewBox="0 0 32 32" fill="none" xmlns="http://www.w3.org/2000/svg">
<path d="M0.25 10C0.25 4.61522 4.61522 0.25 10 0.25H22C27.3848 0.25 31.75 4.61522 31.75 10V22C31.75 27.3848 27.3848 31.75 22 31.75H10C4.61522 31.75 0.25 27.3848 0.25 22V10Z" stroke="#B0B8BF" stroke-width="0.5"/>
<path fill-rule="evenodd" clip-rule="evenodd" d="M18.7071 9.29289C18.3166 8.90237 17.6834 8.90237 17.2929 9.29289L11.2929 15.2929C10.9024 15.6834 10.9024 16.3166 11.2929 16.7071L17.2929 22.7071C17.6834 23.0976 18.3166 23.0976 18.7071 22.7071C19.0976 22.3166 19.0976 21.6834 18.7071 21.2929L13.4142 16L18.7071 10.7071C19.0976 10.3166 19.0976 9.68342 18.7071 9.29289Z" fill="#242D35"/>
</svg>
