<svg width="32" height="32" viewBox="0 0 32 32" fill="none" xmlns="http://www.w3.org/2000/svg">
<path d="M0.25 10C0.25 4.61522 4.61522 0.25 10 0.25H22C27.3848 0.25 31.75 4.61522 31.75 10V22C31.75 27.3848 27.3848 31.75 22 31.75H10C4.61522 31.75 0.25 27.3848 0.25 22V10Z" stroke="#B0B8BF" stroke-width="0.5"/>
<path fill-rule="evenodd" clip-rule="evenodd" d="M13.2929 9.29289C13.6834 8.90237 14.3166 8.90237 14.7071 9.29289L20.7071 15.2929C21.0976 15.6834 21.0976 16.3166 20.7071 16.7071L14.7071 22.7071C14.3166 23.0976 13.6834 23.0976 13.2929 22.7071C12.9024 22.3166 12.9024 21.6834 13.2929 21.2929L18.5858 16L13.2929 10.7071C12.9024 10.3166 12.9024 9.68342 13.2929 9.29289Z" fill="#242D35"/>
</svg>
