<svg width="24" height="24" viewBox="0 0 24 24" fill="none" xmlns="http://www.w3.org/2000/svg">
<path d="M0 8C0 3.58172 3.58172 0 8 0H16C20.4183 0 24 3.58172 24 8V16C24 20.4183 20.4183 24 16 24H8C3.58172 24 0 20.4183 0 16V8Z" fill="#EBEEF0"/>
<path fill-rule="evenodd" clip-rule="evenodd" d="M12.3334 0.666664C10.2116 0.666664 8.17681 1.50952 6.67652 3.00981C5.17623 4.5101 4.33337 6.54493 4.33337 8.66666V11.6605C4.30475 13.95 3.66417 16.1901 2.47802 18.1486C2.291 18.4574 2.28494 18.843 2.46216 19.1576C2.63938 19.4721 2.97236 19.6667 3.33337 19.6667H21.3334C21.6944 19.6667 22.0274 19.4721 22.2046 19.1576C22.3818 18.843 22.3757 18.4574 22.1887 18.1486C21.0026 16.1901 20.362 13.95 20.3334 11.6605V8.66666C20.3334 6.54493 19.4905 4.5101 17.9902 3.00981C16.4899 1.50952 14.4551 0.666664 12.3334 0.666664ZM8.09073 4.42402C9.21595 3.29881 10.7421 2.66666 12.3334 2.66666C13.9247 2.66666 15.4508 3.29881 16.576 4.42402C17.7012 5.54924 18.3334 7.07537 18.3334 8.66666L18.3333 11.6667L18.3334 11.6787C18.3584 13.7526 18.8179 15.7917 19.6749 17.6667H4.9919C5.84888 15.7917 6.3084 13.7526 6.33337 11.6787V8.66666C6.33337 7.07537 6.96552 5.54924 8.09073 4.42402Z" fill="#242D35"/>
<path d="M10.4978 22.1164C9.96071 21.7583 9.55396 21.2519 9.33337 20.6667H15.3334C15.1128 21.2519 14.706 21.7583 14.1689 22.1164C13.6318 22.4744 12.9906 22.6667 12.3334 22.6667C11.6761 22.6667 11.0349 22.4744 10.4978 22.1164Z" fill="#242D35"/>
</svg>