<svg width="25" height="24" viewBox="0 0 25 24" fill="none" xmlns="http://www.w3.org/2000/svg">
<path d="M0.5 8C0.5 3.58172 4.08172 0 8.5 0H16.5C20.9183 0 24.5 3.58172 24.5 8V16C24.5 20.4183 20.9183 24 16.5 24H8.5C4.08172 24 0.5 20.4183 0.5 16V8Z" fill="#EBEEF0"/>
<path fill-rule="evenodd" clip-rule="evenodd" d="M5.16663 16C5.16663 16.5304 5.37734 17.0391 5.75241 17.4142C6.12749 17.7893 6.63619 18 7.16663 18H17.8333C18.3637 18 18.8724 17.7893 19.2475 17.4142C19.6226 17.0391 19.8333 16.5304 19.8333 16V8C19.8333 7.46957 19.6226 6.96086 19.2475 6.58579C18.8724 6.21071 18.3637 6 17.8333 6L7.16663 6C6.06206 6 5.16663 6.89543 5.16663 8L5.16663 16ZM18.5 9.66667V8C18.5 7.82319 18.4297 7.65362 18.3047 7.5286C18.1797 7.40357 18.0101 7.33333 17.8333 7.33333L7.16663 7.33333C6.79844 7.33333 6.49996 7.63181 6.49996 8L6.49996 16C6.49996 16.1768 6.5702 16.3464 6.69522 16.4714C6.82025 16.5964 6.98981 16.6667 7.16663 16.6667L17.8333 16.6667C18.0101 16.6667 18.1797 16.5964 18.3047 16.4714C18.4297 16.3464 18.5 16.1768 18.5 16V14.6667H15C13.6192 14.6667 12.5 13.5474 12.5 12.1667C12.5 10.786 13.6192 9.66667 15 9.66667H18.5ZM18.5 13.3333V11H15C14.3556 11 13.8333 11.5223 13.8333 12.1667C13.8333 12.811 14.3556 13.3333 15 13.3333H18.5Z" fill="#242D35"/>
</svg>
